<?xml version="1.0" encoding="utf-8"?>
<!-- Generator: Adobe Illustrator 20.1.0, SVG Export Plug-In . SVG Version: 6.00 Build 0)  -->
<!DOCTYPE svg PUBLIC "-//W3C//DTD SVG 1.1//EN" "http://www.w3.org/Graphics/SVG/1.1/DTD/svg11.dtd">
<svg version="1.1" id="Layer_1" xmlns="http://www.w3.org/2000/svg" xmlns:xlink="http://www.w3.org/1999/xlink" x="0px" y="0px"
	 width="800px" height="800px" viewBox="0 0 800 800" enable-background="new 0 0 800 800" xml:space="preserve">
<g>
	<path fill="#84BF56" d="M189.518,316.699L180.348,306H184c0.781,0,1.49-0.455,1.816-1.164c0.326-0.709,0.211-1.545-0.299-2.137
		L176.348,292H180c0.781,0,1.49-0.455,1.816-1.164c0.326-0.709,0.211-1.545-0.299-2.137L172.348,278H176
		c0.787,0,1.502-0.463,1.824-1.18c0.322-0.719,0.193-1.561-0.33-2.148l-16-18C161.115,256.244,160.57,256,160,256
		s-1.115,0.244-1.494,0.672l-16,18c-0.523,0.588-0.652,1.43-0.33,2.148c0.322,0.717,1.037,1.18,1.824,1.18h3.652l-9.17,10.699
		c-0.51,0.592-0.625,1.428-0.299,2.137C138.51,291.545,139.219,292,140,292h3.652l-9.17,10.699c-0.51,0.592-0.625,1.428-0.299,2.137
		C134.51,305.545,135.219,306,136,306h3.652l-9.17,10.699c-0.51,0.592-0.625,1.428-0.299,2.137C130.51,319.545,131.219,320,132,320
		h56c0.781,0,1.49-0.455,1.816-1.164C190.143,318.127,190.027,317.291,189.518,316.699z"/>
	<path opacity="0.15" d="M189.816,318.836c0.326-0.709,0.211-1.545-0.299-2.137L180.348,306H184c0.781,0,1.49-0.455,1.816-1.164
		c0.326-0.709,0.211-1.545-0.299-2.137L176.348,292H180c0.781,0,1.49-0.455,1.816-1.164c0.326-0.709,0.211-1.545-0.299-2.137
		L172.348,278H176c0.787,0,1.502-0.463,1.824-1.18c0.322-0.719,0.193-1.561-0.33-2.148l-15.611-17.565
		C160.715,256.418,160,256,160,256l12,64h16C188.781,320,189.49,319.545,189.816,318.836z"/>
	<g>
		<circle fill="#EF4D4D" cx="170" cy="296" r="6"/>
		<path opacity="0.15" d="M170,302c-2.973,0-5.422-2.164-5.898-5c-0.057,0.326-0.102,0.658-0.102,1c0,3.315,2.686,6,6,6s6-2.685,6-6
			c0-0.342-0.045-0.674-0.102-1C175.422,299.836,172.973,302,170,302z"/>
		<path opacity="0.15" d="M170,298c-2.365,0-4.467-1.045-5.932-2.676C164.043,295.549,164,295.77,164,296c0,3.315,2.686,6,6,6
			s6-2.685,6-6c0-0.23-0.043-0.451-0.068-0.676C174.467,296.955,172.365,298,170,298z"/>
	</g>
	<g>
		<circle fill="#469FCC" cx="156" cy="276" r="6"/>
		<path opacity="0.15" d="M156,282c-2.973,0-5.422-2.164-5.898-5c-0.057,0.326-0.102,0.658-0.102,1c0,3.315,2.686,6,6,6s6-2.685,6-6
			c0-0.342-0.045-0.674-0.102-1C161.422,279.836,158.973,282,156,282z"/>
		<path opacity="0.15" d="M156,278c-2.365,0-4.467-1.045-5.932-2.676C150.043,275.549,150,275.77,150,276c0,3.315,2.686,6,6,6
			s6-2.685,6-6c0-0.23-0.043-0.451-0.068-0.676C160.467,276.955,158.365,278,156,278z"/>
	</g>
	<g>
		<circle fill="#EACA44" cx="150" cy="308" r="6"/>
		<path opacity="0.15" d="M150,314c-2.973,0-5.422-2.164-5.898-5c-0.057,0.326-0.102,0.658-0.102,1c0,3.315,2.686,6,6,6s6-2.685,6-6
			c0-0.342-0.045-0.674-0.102-1C155.422,311.836,152.973,314,150,314z"/>
		<path opacity="0.15" d="M150,310c-2.365,0-4.467-1.045-5.932-2.676C144.043,307.549,144,307.77,144,308c0,3.315,2.686,6,6,6
			s6-2.685,6-6c0-0.23-0.043-0.451-0.068-0.676C154.467,308.955,152.365,310,150,310z"/>
	</g>
</g>
<g>
	<circle fill="#EF4D4D" cx="544" cy="550" r="26"/>
	<path fill="#434854" d="M544,524c2.793,0,5.479,0.451,8,1.268V522c0-1.106-0.895-2-2-2h-12c-1.106,0-2,0.894-2,2v3.268
		C538.521,524.451,541.207,524,544,524z"/>
	<path fill="#434854" d="M544,512c-3.315,0-6,2.685-6,6v2h4v-2c0-1.106,0.894-2,2-2c1.105,0,2,0.894,2,2v2h4v-2
		C550,514.685,547.315,512,544,512z"/>
	<g opacity="0.3">
		<rect x="538" y="518" width="4" height="2"/>
		<rect x="546" y="518" width="4" height="2"/>
	</g>
	<path opacity="0.15" d="M544,564c-10.383,0-19.662-4.668-25.898-12.002C519.125,565.42,530.315,576,544,576
		s24.875-10.58,25.898-24.002C563.662,559.332,554.383,564,544,564z"/>
	<path opacity="0.2" fill="#FFFFFF" d="M544,532c-1.106,0-2,0.894-2,2s0.894,2,2,2c7.732,0,14,6.268,14,14c0,1.106,0.894,2,2,2
		c1.105,0,2-0.894,2-2C562,540.059,553.941,532,544,532z"/>
</g>
<g>
	<path fill="#469FCC" d="M540,138v10c0,6.627,5.373,12,12,12l0,0c6.627,0,12,5.373,12,12v6c0,1.105-0.895,2-2,2h-48
		c-1.106,0-2-0.895-2-2v-6v-34H540z"/>
	<path fill="#DAE2E5" d="M514,188h6v-8h4v8h28v-8h4v8h8c4.418,0,8-3.582,8-8c0-1.105,0.894-2,2-2c1.105,0,2,0.895,2,2
		c0,6.627-5.373,12-12,12h-50c-1.106,0-2-0.895-2-2S512.894,188,514,188z"/>
	<g opacity="0.1">
		<rect x="552" y="180" width="4" height="2"/>
		<rect x="520" y="180" width="4" height="2"/>
	</g>
	<path opacity="0.15" d="M564,172v6c0,1.105-0.895,2-2,2h-48c-1.106,0-2-0.895-2-2v-6H564z"/>
	<g opacity="0.15">
		<path d="M530,146c0-1.105,0.894-2,2-2h8v4h-8C530.894,148,530,147.105,530,146z"/>
		<path d="M532,152h8.697c0.529,1.492,1.342,2.846,2.377,4H532c-1.106,0-2-0.895-2-2S530.894,152,532,152z"/>
	</g>
	<path fill="#434854" d="M512,128h28c1.105,0,2,0.895,2,2v6c0,1.105-0.895,2-2,2h-28V128z"/>
	<rect x="512" y="138" opacity="0.15" width="28" height="2"/>
</g>
<g>
	<path fill="#DAE2E5" d="M171.995,435.982l-38,0.026c-3.315,0.002-5.997,2.689-5.995,6.003c0.002,3.315,2.689,5.999,6.004,5.997
		l37.999-0.025c3.314-0.002,5.999-2.689,5.997-6.004C177.998,438.665,175.31,435.98,171.995,435.982z"/>
	<path opacity="0.1" d="M174.001,443.981L132,444.011c-1.521,0-2.895-0.583-3.951-1.514c0.251,3.084,2.806,5.514,5.955,5.512
		l37.999-0.025c3.148-0.003,5.7-2.435,5.948-5.521C176.895,443.397,175.523,443.981,174.001,443.981z"/>
	<path fill="#EF4D4D" d="M190.221,407.729c-2.346-2.344-5.745-1.542-8.486,0.005l-9.754,6.249l-0.009-14.001
		c-0.007-8.836-7.176-15.995-16.011-15.989l-6.001,0.005c-8.835,0.006-15.995,7.175-15.989,16.011l0.024,36l38-0.026l18.229-19.768
		C192.605,413.636,192.565,410.07,190.221,407.729z"/>
	<polygon opacity="0.15" points="133.993,434.009 133.995,436.009 171.995,435.982 173.841,433.981 	"/>
	<g opacity="0.15">
		<path fill="#FFFFFF" d="M181.734,407.734l-9.754,6.249l0.004,5.999l11.994-10.008c0,0,2.684-2.682,5.855-2.555
			C187.511,405.506,184.332,406.268,181.734,407.734z"/>
		<path fill="#FFFFFF" d="M155.961,383.993l-6.001,0.005c-7.858,0.005-14.378,5.683-15.724,13.157
			c2.922-3.16,7.089-5.151,11.729-5.155l13.985-0.01c4.651-0.002,8.827,1.992,11.753,5.161
			C170.359,389.67,163.827,383.988,155.961,383.993z"/>
	</g>
	<path fill="#EACA44" d="M182.729,422.301l-2.828,2.833l-2.83-2.828c-0.781-0.781-2.047-0.78-2.828,0.003l-2.827,2.831l-2.829-2.828
		c-0.782-0.78-2.048-0.78-2.828,0.002l-2.826,2.831l-2.832-2.827c-0.033-0.033-0.078-0.045-0.113-0.076v-0.008
		c-0.021-0.018-0.047-0.021-0.068-0.04c-0.375-0.296-0.817-0.444-1.27-0.428c-0.039,0-0.074,0.014-0.113,0.017
		c-0.192,0.019-0.381,0.05-0.564,0.122c-0.068,0.027-0.126,0.076-0.193,0.111c-0.124,0.069-0.257,0.117-0.368,0.212v0.039
		c-0.031,0.027-0.07,0.036-0.103,0.068l-2.828,2.832l-2.829-2.829c-0.782-0.78-2.048-0.78-2.828,0.003l-2.827,2.831l-2.829-2.828
		c-0.781-0.78-2.047-0.778-2.829,0.002l-2.826,2.832l-2.831-2.827c-0.203-0.203-0.442-0.341-0.692-0.436l0.005,5.402l2.106,2.104
		c0.783,0.779,2.047,0.778,2.829-0.003l2.827-2.83l2.83,2.827c0.78,0.78,2.046,0.779,2.828-0.002l2.826-2.831l2.83,2.826
		c0.783,0.782,2.047,0.78,2.829-0.001l2.817-2.82l2.805,2.802c0.783,0.779,2.047,0.778,2.83-0.003l2.826-2.83l2.829,2.825
		c0.782,0.782,2.048,0.78,2.828,0l2.827-2.831l2.621,2.616l6.664-7.228C184.212,421.602,183.333,421.696,182.729,422.301z"/>
</g>
<g>
	<g>
		<path fill="#EACA44" d="M656.172,152.082l6.244-1.666l1.664-6.242l-12.293-7.117c-0.783-0.455-1.775-0.324-2.416,0.316
			c-0.641,0.641-0.77,1.631-0.316,2.416L656.172,152.082z"/>
		<path fill="#EACA44" d="M681.584,150.416l6.242,1.664l7.115-12.291c0.455-0.783,0.324-1.773-0.316-2.414
			c-0.641-0.643-1.633-0.773-2.414-0.318l-12.293,7.117L681.584,150.416z"/>
		<path fill="#EACA44" d="M662.416,169.584l-6.244-1.664l-7.117,12.293c-0.453,0.783-0.324,1.773,0.316,2.416
			c0.641,0.641,1.633,0.77,2.414,0.316l12.297-7.119L662.416,169.584z"/>
		<path fill="#EACA44" d="M687.824,167.92l-6.24,1.664l-1.666,6.244l12.293,7.117c0.783,0.453,1.773,0.324,2.414-0.316
			c0.641-0.641,0.771-1.633,0.316-2.418L687.824,167.92z"/>
	</g>
	<g>
		<path fill="#EACA44" d="M702.516,158.068l-22.566-6.018l-6.018-22.566C673.699,128.609,672.906,128,672,128
			c-0.906,0-1.699,0.609-1.932,1.484l-6.018,22.566l-22.566,6.018C640.609,158.301,640,159.094,640,160
			c0,0.906,0.609,1.699,1.484,1.932l22.566,6.018l6.018,22.566c0.232,0.875,1.025,1.484,1.932,1.484
			c0.906,0,1.699-0.609,1.932-1.484l6.018-22.566l22.566-6.018c0.875-0.232,1.484-1.025,1.484-1.932
			C704,159.094,703.391,158.301,702.516,158.068z"/>
		<path fill="#EACA44" d="M656.172,152.082l6.244-1.666l1.664-6.242l-12.293-7.117c-0.783-0.455-1.775-0.324-2.416,0.316
			c-0.641,0.641-0.77,1.631-0.316,2.416L656.172,152.082z"/>
		<path fill="#EACA44" d="M687.826,152.08l7.115-12.291c0.455-0.783,0.324-1.773-0.316-2.414c-0.641-0.643-1.633-0.773-2.414-0.318
			l-12.293,7.117l1.666,6.242L687.826,152.08z"/>
		<path fill="#EACA44" d="M656.172,167.92l-7.117,12.293c-0.453,0.783-0.324,1.773,0.316,2.416c0.641,0.641,1.633,0.77,2.414,0.316
			l12.297-7.119l-1.666-6.242L656.172,167.92z"/>
		<path fill="#EACA44" d="M687.824,167.92l-6.24,1.664l-1.666,6.244l12.293,7.117c0.783,0.453,1.773,0.324,2.414-0.316
			c0.641-0.641,0.771-1.633,0.316-2.418L687.824,167.92z"/>
	</g>
	<g opacity="0.1">
		<path d="M672,192c0.906,0,1.699-0.609,1.932-1.484l6.018-22.566L672,160V192z"/>
		<path d="M641.484,161.932l22.566,6.018L672,160h-32C640,160.906,640.609,161.699,641.484,161.932z"/>
		<path d="M670.068,129.484l-6.018,22.566L672,160v-32C671.094,128,670.301,128.609,670.068,129.484z"/>
		<path d="M702.516,158.068l-22.566-6.018L672,160h32C704,159.094,703.391,158.301,702.516,158.068z"/>
		<path d="M687.824,167.92l-6.24,1.664l13.043,13.043c0.639-0.641,0.769-1.631,0.314-2.416L687.824,167.92z"/>
		<path d="M694.623,137.373c-0.641-0.641-1.631-0.771-2.412-0.316l-12.293,7.117l1.666,6.24L694.623,137.373z"/>
		<path d="M656.172,152.082l6.242-1.666l-13.045-13.039c-0.639,0.641-0.768,1.629-0.314,2.412L656.172,152.082z"/>
		<path d="M649.373,182.631c0.641,0.639,1.631,0.768,2.412,0.314l12.297-7.119l-1.666-6.24L649.373,182.631z"/>
	</g>
</g>
<g>
	<path fill="#DAE2E5" d="M314.008,436.001l-48-0.049c-3.314-0.004-6.004,2.68-6.008,5.993c-0.003,3.315,2.68,6.003,5.994,6.006
		l48,0.049c3.314,0.005,6.003-2.68,6.007-5.994C320.004,438.693,317.321,436.005,314.008,436.001z"/>
	<path opacity="0.1" d="M315.998,444.004l-51.999-0.054c-1.521-0.003-2.893-0.588-3.949-1.521c0.245,3.084,2.796,5.519,5.944,5.522
		l48,0.049c3.148,0.004,5.704-2.425,5.957-5.509C318.894,443.421,317.521,444.004,315.998,444.004z"/>
	<path fill="#EF4D4D" d="M266.008,435.952c0,0,0.039-40,42.04-39.957c-6.032,31.994,5.96,40.006,5.96,40.006L266.008,435.952z"/>
	<path fill="#DAE2E5" d="M319.464,394.597l-1.296-1.297l0.478-1.773c0.285-1.07-0.348-2.165-1.412-2.451l-1.771-0.478l-0.472-1.771
		c-0.288-1.07-1.384-1.702-2.449-1.416l-1.772,0.472l-1.296-1.3c-0.784-0.782-2.048-0.782-2.827-0.002l-1.299,1.296l-1.771-0.479
		c-1.069-0.285-2.167,0.345-2.452,1.412l-0.476,1.771l-1.773,0.473c-1.068,0.288-1.704,1.381-1.417,2.448l0.473,1.773l-1.298,1.297
		c-0.783,0.778-0.784,2.044-0.003,2.826l1.293,1.297l-0.477,1.773c-0.285,1.067,0.345,2.161,1.412,2.45l1.77,0.477l0.474,1.773
		c0.286,1.066,1.382,1.699,2.447,1.418l1.771-0.475l1.297,1.301c0.782,0.779,2.046,0.78,2.829,0.003l1.298-1.295l1.771,0.477
		c1.068,0.284,2.165-0.348,2.45-1.412l0.477-1.77l1.772-0.475c1.068-0.287,1.701-1.383,1.417-2.447l-0.473-1.77l1.3-1.298
		C320.242,396.64,320.243,395.374,319.464,394.597z"/>
	<path opacity="0.15" d="M312.029,433.999l-45.915-0.048c-0.103,1.257-0.107,2.001-0.107,2.001l48,0.049
		C314.008,436.001,313.158,435.428,312.029,433.999z"/>
	<path opacity="0.1" d="M317.921,395.884l-0.638,2.361c-0.38,1.418-1.844,2.262-3.267,1.883l-2.361-0.634l-1.729,1.727
		c-1.043,1.037-2.729,1.034-3.773-0.004l-1.729-1.734l-2.36,0.632c-1.422,0.375-2.88-0.468-3.264-1.89l-0.63-2.365l-1.993-0.536
		c-0.248,0.7-0.107,1.511,0.456,2.073l1.293,1.297l-0.477,1.773c-0.285,1.067,0.345,2.161,1.412,2.45l1.77,0.477l0.474,1.773
		c0.286,1.066,1.382,1.699,2.447,1.418l1.771-0.475l1.297,1.301c0.782,0.779,2.046,0.78,2.829,0.003l1.298-1.295l1.771,0.477
		c1.068,0.284,2.165-0.348,2.45-1.412l0.477-1.77l1.772-0.475c1.068-0.287,1.701-1.383,1.417-2.447l-0.473-1.77l1.3-1.298
		c0.561-0.563,0.704-1.371,0.46-2.07L317.921,395.884z"/>
	<path fill="#EACA44" d="M268.949,429.369l2.831-2.826l2.826,2.831c0.779,0.783,2.045,0.783,2.826,0.004l2.832-2.826l2.825,2.831
		c0.782,0.782,2.046,0.784,2.831,0.004l2.82-2.816l2.801,2.807c0.781,0.781,2.045,0.783,2.828,0.003l2.831-2.825l2.826,2.829
		c0.779,0.784,2.045,0.784,2.829,0.006l2.83-2.827l2.825,2.831c0.299,0.299,0.671,0.446,1.055,0.518
		c-0.89-1.92-1.732-4.372-2.33-7.461l-0.131-0.13c-0.781-0.782-2.047-0.783-2.829-0.003l-2.83,2.827l-2.827-2.833
		c-0.778-0.781-2.044-0.784-2.827-0.003l-2.831,2.826l-2.827-2.832c-0.034-0.034-0.078-0.045-0.112-0.076v-0.008
		c-0.021-0.018-0.047-0.022-0.068-0.039c-0.375-0.298-0.816-0.446-1.27-0.431c-0.039,0-0.073,0.013-0.113,0.016
		c-0.192,0.018-0.381,0.05-0.565,0.122c-0.067,0.026-0.126,0.076-0.191,0.112c-0.127,0.067-0.259,0.115-0.37,0.21l-0.001,0.039
		c-0.03,0.027-0.07,0.036-0.102,0.067l-2.832,2.827l-2.827-2.833c-0.778-0.781-2.044-0.783-2.826-0.004l-2.832,2.828l-2.825-2.833
		c-0.78-0.782-2.045-0.783-2.827-0.003l-2.611,2.608c-0.487,1.745-0.841,3.378-1.095,4.824
		C267.411,430.095,268.328,429.99,268.949,429.369z"/>
</g>
<g>
	<circle fill="#DAE2E5" cx="160" cy="170" r="22"/>
	<circle fill="#DAE2E5" cx="160" cy="142" r="14"/>
	<g>
		<path fill="#E29460" d="M190,146h-4v-4c0-1.105-0.895-2-2-2s-2,0.895-2,2v5.172l-6.877,6.877c0.971,0.922,1.854,1.93,2.643,3.014
			l7.062-7.062H190c1.105,0,2-0.895,2-2S191.105,146,190,146z"/>
		<path fill="#E29460" d="M138,142c0-1.105-0.895-2-2-2s-2,0.895-2,2v4h-4c-1.105,0-2,0.895-2,2s0.895,2,2,2h5.172l7.062,7.062
			c0.789-1.084,1.672-2.092,2.643-3.014L138,147.172V142z"/>
	</g>
	<g opacity="0.1">
		<circle cx="160" cy="164" r="2"/>
		<circle cx="160" cy="172" r="2"/>
		<circle cx="160" cy="180" r="2"/>
	</g>
	<g>
		<circle fill="#434854" cx="164" cy="138" r="2"/>
		<circle fill="#434854" cx="156" cy="138" r="2"/>
	</g>
	<path opacity="0.1" d="M170.832,150.865C168.266,154,164.367,156,160,156s-8.266-2-10.832-5.135
		c-0.584,0.332-1.152,0.686-1.701,1.066C150.398,155.625,154.916,158,160,158s9.602-2.375,12.533-6.068
		C171.984,151.551,171.416,151.197,170.832,150.865z"/>
	<path opacity="0.1" d="M161.42,146.352l-2.828,2.828c-0.782,0.781-2.048,0.781-2.829,0c-0.262-0.262-0.428-0.58-0.515-0.914
		c-0.171,0.663-0.005,1.395,0.515,1.914c0.781,0.781,2.047,0.781,2.829,0l2.828-2.828c0.52-0.52,0.686-1.251,0.515-1.914
		C161.849,145.771,161.683,146.09,161.42,146.352z"/>
	<path fill="#FC821F" d="M158.587,149.242c-0.782,0.781-2.048,0.781-2.829,0l0,0c-0.781-0.781-0.781-2.047,0-2.828l2.828-2.828
		c0.782-0.782,2.047-0.783,2.829-0.001l0,0c0.782,0.782,0.782,2.048,0,2.829L158.587,149.242z"/>
	<path opacity="0.05" d="M160,184c-8.389,0-15.963-3.451-21.408-9c2.268,9.736,10.98,17,21.408,17s19.141-7.264,21.408-17
		C175.963,180.549,168.389,184,160,184z"/>
</g>
<g>
	<path fill="#84BF56" d="M320.006,315.994c0,2.209-1.791,4-4,4H260c-2.209,0-4-1.791-4-4V271.99c0-2.21,1.791-4.001,4-4.001h56.006
		c2.209,0,4,1.791,4,4.001V315.994z"/>
	<path fill="#EF4D4D" d="M294.004,287.991v-20.002h10.516l2.935-2.934c0.572-0.572,0.645-1.352,0.332-2.098
		c-0.309-0.75-0.969-0.973-1.781-0.969l-4.024,0.055l0.023-4.056c0-0.809-0.25-1.529-1-1.836c-0.748-0.311-1.484-0.137-2.055,0.436
		l-10.915,10.917l-10.966-10.966c-0.572-0.572-1.352-0.645-2.098-0.332c-0.75,0.309-0.973,0.969-0.969,1.781l0.055,4.024
		l-4.056-0.023c-0.809,0-1.529,0.25-1.836,1c-0.311,0.748-0.137,1.484,0.436,2.055l2.945,2.945h10.456v20.002H256v12.001h26.002
		v20.002h12.002v-20.002h26.002v-12.001H294.004z"/>
	<g opacity="0.15">
		<polygon points="289.55,265.989 288.034,267.505 286.519,265.989 269.546,265.989 271.546,267.989 287.55,267.989 
			288.519,267.989 304.52,267.989 306.521,265.989 		"/>
		<rect x="294.004" y="287.991" width="2" height="12.001"/>
		<rect x="280.002" y="287.991" width="2" height="12.001"/>
	</g>
	<g opacity="0.15">
		<path d="M314.2,274.99c-0.275-0.479-0.887-0.641-1.365-0.365l-2.83,1.635v-3.27c0-0.553-0.447-1-1-1c-0.553,0-1,0.447-1,1v3.27
			l-2.833-1.635c-0.479-0.275-1.088-0.113-1.365,0.365c-0.277,0.48-0.111,1.09,0.365,1.367l2.831,1.635l-2.829,1.633
			c-0.479,0.275-0.643,0.887-0.367,1.365c0.277,0.48,0.889,0.643,1.367,0.367l2.831-1.633v3.267c0,0.553,0.447,1,1,1
			c0.553,0,1-0.447,1-1v-3.267l2.828,1.633c0.48,0.275,1.09,0.113,1.367-0.367c0.277-0.479,0.111-1.09-0.367-1.365l-2.828-1.635
			l2.83-1.633C314.314,276.08,314.478,275.471,314.2,274.99z"/>
		<path d="M267.829,273.625l-2.828-1.635l2.83-1.634c0.479-0.277,0.643-0.887,0.365-1.367c-0.275-0.479-0.887-0.641-1.365-0.365
			l-2.83,1.635v-2.27h-2v2.27l-2.833-1.635c-0.479-0.275-1.088-0.113-1.365,0.365c-0.277,0.48-0.111,1.09,0.365,1.367l2.83,1.636
			l-2.828,1.633c-0.478,0.275-0.643,0.887-0.367,1.365c0.277,0.48,0.889,0.643,1.367,0.367l2.831-1.633v3.266c0,0.553,0.447,1,1,1
			c0.553,0,1-0.447,1-1v-3.266l2.828,1.633c0.48,0.275,1.09,0.113,1.367-0.367C268.474,274.512,268.308,273.9,267.829,273.625z"/>
		<path d="M317.174,306.628c-0.479-0.275-1.088-0.113-1.365,0.365c-0.278,0.48-0.112,1.09,0.365,1.367l2.83,1.635l-2.828,1.633
			c-0.479,0.275-0.644,0.887-0.367,1.365c0.277,0.48,0.889,0.643,1.367,0.367l2.83-1.633v-3.465L317.174,306.628z"/>
		<path d="M308.2,312.993c-0.275-0.479-0.887-0.641-1.365-0.365l-2.831,1.636v-3.271c0-0.553-0.447-1-1-1c-0.553,0-1,0.447-1,1
			v3.271l-2.832-1.636c-0.479-0.275-1.088-0.113-1.365,0.365c-0.277,0.48-0.111,1.09,0.365,1.368l2.83,1.635l-2.828,1.633
			c-0.479,0.275-0.643,0.887-0.367,1.365c0.277,0.48,0.889,0.643,1.367,0.367l2.83-1.633v2.266h2v-2.266l2.829,1.633
			c0.48,0.275,1.09,0.113,1.367-0.367c0.277-0.479,0.111-1.09-0.367-1.365l-2.829-1.635l2.831-1.633
			C308.314,314.083,308.478,313.474,308.2,312.993z"/>
		<path d="M269.001,315.994c-0.553,0-1,0.447-1,1v3h2v-3C270.001,316.441,269.554,315.994,269.001,315.994z"/>
		<path d="M272.832,318.629l-2.364,1.365h3.714c0.176-0.301,0.203-0.676,0.016-1C273.922,318.516,273.31,318.353,272.832,318.629z"
			/>
		<path d="M263.804,318.994c-0.188,0.324-0.158,0.699,0.018,1h3.713l-2.365-1.365C264.69,318.353,264.081,318.516,263.804,318.994z"
			/>
		<path d="M281.002,277.99c-0.553,0-1,0.447-1,1v3.271l-2.832-1.636c-0.478-0.275-1.088-0.113-1.365,0.365
			c-0.277,0.48-0.111,1.09,0.365,1.368l2.83,1.635l-2.828,1.633c-0.479,0.275-0.643,0.887-0.367,1.365
			c0.277,0.48,0.889,0.643,1.367,0.367l2.83-1.633v2.266h2v-2.266v-3.465v-3.271C282.002,278.438,281.555,277.99,281.002,277.99z"/>
		<path d="M279.83,303.627l-2.828-1.635l2.83-1.633c0.156-0.09,0.264-0.223,0.35-0.367h-3.713l-0.467,0.27v-0.27h-2v0.27
			l-0.467-0.27h-3.714c0.084,0.145,0.193,0.277,0.348,0.367l2.831,1.635l-2.829,1.633c-0.479,0.275-0.643,0.888-0.367,1.366
			c0.277,0.48,0.889,0.643,1.367,0.367l2.831-1.634v3.267c0,0.553,0.447,1,1,1c0.553,0,1-0.447,1-1v-3.267l2.828,1.634
			c0.48,0.275,1.09,0.113,1.367-0.367C280.475,304.515,280.309,303.902,279.83,303.627z"/>
	</g>
</g>
<g>
	<path fill="#DAE2E5" d="M443.011,384.103l-27.999-0.055c-3.315-0.007-6.004,2.673-6.011,5.987
		c-0.006,3.313,2.673,6.006,5.987,6.012l28.001,0.056c3.314,0.006,6.004-2.674,6.011-5.989
		C449.006,386.799,446.326,384.108,443.011,384.103z"/>
	<path opacity="0.1" d="M444.997,392.106l-32.001-0.063c-1.522-0.003-2.893-0.59-3.949-1.524c0.244,3.086,2.793,5.521,5.941,5.528
		l28.001,0.056c3.148,0.005,5.706-2.421,5.961-5.504C447.892,391.528,446.519,392.108,444.997,392.106z"/>
	<path fill="#EF4D4D" d="M414.988,396.047l-0.048,24l-15.999-0.031c-7.73-0.017-14.013,6.242-14.028,13.973
		c-0.015,7.729,6.242,14.012,13.972,14.027l30.001,0.06c7.73,0.015,14.012-6.242,14.027-13.973l0.076-38L414.988,396.047z"/>
	<g>
		<path fill="#EACA44" d="M440.296,402.683l-2.836,2.824l-2.822-2.835c-0.781-0.782-2.046-0.785-2.828-0.005l-2.834,2.823
			l-2.824-2.835c-0.778-0.782-2.044-0.787-2.827-0.006l-2.833,2.824l-2.824-2.837c-0.739-0.74-1.905-0.759-2.691-0.096l-0.01,5.613
			l1.278-1.274l2.823,2.834c0.78,0.782,2.044,0.784,2.83,0.004l2.833-2.822l2.822,2.834c0.781,0.783,2.046,0.785,2.827,0.007
			l2.835-2.825l2.822,2.835c0.781,0.784,2.046,0.785,2.831,0.006l2.834-2.822l1.263,1.269l0.011-5.61
			C442.19,401.933,441.034,401.946,440.296,402.683z"/>
		<path fill="#EACA44" d="M440.277,412.439l-2.837,2.824l-2.821-2.837c-0.78-0.781-2.046-0.783-2.829-0.004l-2.834,2.824
			l-2.821-2.836c-0.78-0.781-2.046-0.785-2.829-0.005l-2.833,2.825l-2.824-2.836c-0.739-0.742-1.905-0.761-2.691-0.099l-0.013,5.614
			l1.279-1.275l2.824,2.834c0.78,0.782,2.044,0.786,2.829,0.007l2.835-2.824l2.821,2.835c0.78,0.783,2.046,0.785,2.828,0.004
			l2.834-2.821l2.823,2.835c0.782,0.78,2.046,0.783,2.829,0.003l2.835-2.822l1.262,1.268l0.012-5.608
			C442.172,411.689,441.016,411.703,440.277,412.439z"/>
	</g>
	<g opacity="0.15">
		<rect x="427.987" y="383.074" transform="matrix(0.002 -1 1 0.002 31.0762 825.2853)" width="1.999" height="28.001"/>
		<path d="M426.887,448.07l1.999,0.005c7.73,0.015,14.012-6.242,14.027-13.973l0.004-2
			C434.082,432.086,426.904,439.234,426.887,448.07z"/>
	</g>
</g>
<path fill="#469FCC" d="M573.989,670.051h-4.533l2.267-3.926c0.549-0.961,0.223-2.182-0.734-2.734
	c-0.957-0.553-2.18-0.223-2.73,0.734l-3.422,5.926h-3.529l-6.928-12l1.762-3.051h6.848c1.105,0,2-0.896,2-2.002
	c0-1.104-0.895-2-2-1.998h-4.539l2.269-3.93c0.555-0.957,0.227-2.18-0.73-2.732c-0.957-0.553-2.18-0.225-2.732,0.732l-2.266,3.926
	l-2.268-3.926c-0.557-0.957-1.777-1.285-2.734-0.731c-0.957,0.551-1.283,1.773-0.731,2.731l3.422,5.926l-1.764,3.055H537.06
	L535.298,653l3.424-5.93c0.553-0.957,0.225-2.18-0.732-2.732c-0.957-0.553-2.18-0.225-2.731,0.734l-2.269,3.93l-2.27-3.932
	c-0.551-0.957-1.773-1.285-2.73-0.732c-0.957,0.553-1.285,1.775-0.733,2.732l2.268,3.926h-4.535c-1.106,0.004-2,0.898-2,2.004
	c0,1.104,0.894,1.996,2,1.996h6.844l1.764,3.055l-6.928,12h-3.525l-3.422-5.928c-0.553-0.957-1.775-1.285-2.732-0.732
	c-0.957,0.553-1.285,1.775-0.731,2.732l2.268,3.928h-4.537c-1.106,0-2,0.895-2,2c0,1.106,0.895,2,2,2h4.533l-2.268,3.928
	c-0.551,0.959-0.223,2.18,0.734,2.734c0.957,0.551,2.178,0.223,2.73-0.734l3.422-5.928h3.527l6.928,12l-1.762,3.051h-6.846
	c-1.106,0-2,0.896-2,2.002c0,1.105,0.894,2.002,2,1.998h4.537l-2.27,3.93c-0.553,0.957-0.225,2.18,0.733,2.732
	c0.957,0.553,2.18,0.225,2.73-0.732l2.268-3.928l2.268,3.93c0.557,0.955,1.777,1.283,2.734,0.73c0.957-0.553,1.281-1.775,0.73-2.73
	l-3.424-5.93l1.764-3.053h13.857l1.762,3.051l-3.424,5.93c-0.551,0.957-0.223,2.18,0.734,2.732c0.957,0.553,2.18,0.227,2.73-0.732
	l2.27-3.93l2.267,3.93c0.553,0.957,1.775,1.285,2.732,0.732c0.957-0.553,1.285-1.775,0.73-2.732l-2.266-3.926h4.535
	c1.105-0.004,2-0.897,2-2.002c0-1.106-0.896-1.998-2-1.998h-6.846l-1.764-3.053l6.928-12.002h3.525l3.422,5.93
	c0.555,0.957,1.777,1.283,2.734,0.73c0.957-0.551,1.285-1.773,0.73-2.73l-2.269-3.93h4.539c1.105,0,2-0.894,2-2
	C575.989,670.945,575.095,670.051,573.989,670.051z M556.69,670.051h-9.238l4.619-8.002L556.69,670.051z M548.608,660.051
	l-4.619,8.002l-4.621-8.002H548.608z M535.907,662.053l4.617,7.998h-9.236L535.907,662.053z M531.288,674.051h9.236l-4.617,7.998
	L531.288,674.051z M539.368,684.051l4.621-8.002l4.619,8.002H539.368z M552.071,682.051l-4.619-8h9.238L552.071,682.051z"/>
<path fill="#469FCC" d="M701.999,670.069h-2.565l1.268-2.195c0.551-0.958,0.227-2.185-0.734-2.733
	c-0.962-0.557-2.183-0.229-2.735,0.732l-2.421,4.196h-7.354l4.275-7.396c0.022-0.037,0.02-0.08,0.039-0.117
	c0.057-0.117,0.086-0.238,0.121-0.365c0.035-0.135,0.072-0.265,0.08-0.399c0.002-0.041,0.023-0.074,0.023-0.115
	c0-0.086-0.039-0.16-0.049-0.244c-0.018-0.139-0.035-0.269-0.082-0.4c-0.041-0.125-0.102-0.232-0.166-0.344
	c-0.064-0.109-0.127-0.213-0.211-0.31c-0.09-0.104-0.193-0.186-0.304-0.268c-0.068-0.053-0.113-0.125-0.19-0.168
	c-0.037-0.021-0.078-0.02-0.117-0.039c-0.115-0.058-0.238-0.088-0.365-0.123c-0.137-0.037-0.268-0.074-0.406-0.082
	c-0.037-0.002-0.07-0.022-0.109-0.022h-8.544l3.677-6.369l4.85,0.004c1.106-0.004,2.001-0.897,2.005-2.005
	c-0.004-1.107-0.899-2.001-2.005-1.999l-2.538-0.002l1.284-2.223c0.555-0.958,0.227-2.181-0.731-2.734
	c-0.958-0.553-2.181-0.225-2.734,0.733l-1.283,2.222l-1.266-2.194c-0.555-0.958-1.778-1.29-2.735-0.733
	c-0.962,0.556-1.29,1.776-0.733,2.736l2.425,4.194l-3.677,6.369l-4.269-7.401c-0.021-0.037-0.059-0.059-0.082-0.094
	c-0.073-0.105-0.163-0.191-0.255-0.285c-0.1-0.1-0.195-0.195-0.31-0.271c-0.033-0.021-0.051-0.057-0.086-0.076
	c-0.074-0.043-0.156-0.047-0.234-0.08c-0.127-0.053-0.25-0.104-0.387-0.131c-0.131-0.025-0.258-0.027-0.391-0.025
	c-0.121,0-0.238,0.002-0.359,0.025c-0.143,0.027-0.27,0.078-0.402,0.135c-0.074,0.031-0.154,0.035-0.227,0.076
	c-0.035,0.02-0.055,0.055-0.086,0.076c-0.115,0.074-0.207,0.17-0.305,0.27c-0.096,0.096-0.189,0.186-0.263,0.297
	c-0.021,0.033-0.059,0.053-0.078,0.088l-4.271,7.398l-3.677-6.367l2.427-4.198c0.551-0.958,0.225-2.181-0.733-2.736
	c-0.959-0.551-2.183-0.225-2.733,0.735l-1.27,2.198l-1.285-2.225c-0.552-0.958-1.774-1.286-2.732-0.733
	c-0.957,0.554-1.285,1.776-0.732,2.734l1.284,2.223h-2.534c-1.107,0-2.007,0.895-2.003,2.001c0,1.109,0.896,2.005,2.003,2.003
	l4.846-0.002l3.677,6.369l-8.544-0.004c-0.043,0-0.078,0.022-0.119,0.023c-0.131,0.01-0.254,0.045-0.383,0.08
	c-0.133,0.035-0.262,0.066-0.381,0.127c-0.037,0.02-0.078,0.018-0.113,0.039c-0.076,0.043-0.121,0.115-0.19,0.168
	c-0.11,0.082-0.214,0.162-0.304,0.266c-0.088,0.1-0.152,0.209-0.217,0.322c-0.06,0.107-0.119,0.211-0.16,0.328
	c-0.047,0.135-0.065,0.268-0.082,0.408c-0.01,0.082-0.049,0.154-0.049,0.24c0,0.041,0.022,0.076,0.023,0.119
	c0.008,0.129,0.043,0.253,0.078,0.382c0.035,0.137,0.07,0.269,0.133,0.393c0.018,0.035,0.016,0.072,0.035,0.106l4.269,7.396h-7.354
	l-2.423-4.198c-0.553-0.957-1.775-1.285-2.733-0.732c-0.957,0.553-1.285,1.775-0.73,2.733l1.268,2.197h-2.569
	c-1.107,0-2.001,0.896-2.001,2.001c0,1.105,0.894,2.001,2.001,2.001h2.569l-1.268,2.196c-0.555,0.957-0.229,2.184,0.73,2.734
	c0.962,0.554,2.185,0.227,2.735-0.734l2.423-4.196h7.353l-4.273,7.396c-0.021,0.037-0.019,0.078-0.039,0.115
	c-0.059,0.117-0.088,0.242-0.123,0.371c-0.035,0.133-0.072,0.261-0.08,0.396c-0.002,0.041-0.023,0.074-0.023,0.115
	c0,0.086,0.039,0.158,0.049,0.242c0.017,0.139,0.035,0.274,0.082,0.406c0.043,0.123,0.104,0.231,0.168,0.34
	c0.062,0.109,0.123,0.213,0.207,0.309c0.092,0.107,0.199,0.191,0.315,0.277c0.064,0.049,0.107,0.117,0.18,0.158
	c0.035,0.019,0.074,0.019,0.111,0.037c0.119,0.061,0.248,0.094,0.379,0.129c0.135,0.035,0.262,0.07,0.396,0.078
	c0.039,0.004,0.072,0.023,0.113,0.023h8.54l-3.677,6.369l-4.848-0.004c-1.105,0.004-1.999,0.899-2.005,2.005
	c0.004,1.106,0.9,2.001,2.005,1.999l2.536,0.002l-1.284,2.223c-0.553,0.958-0.225,2.181,0.732,2.734
	c0.958,0.553,2.181,0.225,2.732-0.733l1.283-2.224l1.268,2.198c0.555,0.956,1.78,1.288,2.735,0.731
	c0.962-0.556,1.29-1.776,0.733-2.736l-2.425-4.196l3.677-6.367l4.271,7.401c0.021,0.037,0.059,0.057,0.082,0.092
	c0.071,0.107,0.163,0.193,0.255,0.287c0.1,0.1,0.193,0.195,0.309,0.271c0.033,0.022,0.051,0.057,0.086,0.076
	c0.074,0.043,0.156,0.047,0.232,0.078c0.129,0.055,0.254,0.105,0.393,0.133c0.129,0.023,0.252,0.025,0.381,0.025
	c0.125,0,0.244-0.002,0.369-0.025c0.137-0.027,0.262-0.076,0.391-0.131c0.078-0.033,0.162-0.037,0.236-0.08
	c0.037-0.021,0.057-0.057,0.09-0.08c0.109-0.072,0.197-0.164,0.291-0.258c0.1-0.098,0.197-0.191,0.272-0.307
	c0.022-0.033,0.057-0.051,0.076-0.086l4.269-7.399l3.679,6.371l-2.427,4.196c-0.551,0.958-0.223,2.179,0.733,2.738
	c0.959,0.549,2.183,0.221,2.733-0.737l1.269-2.196l1.283,2.224c0.554,0.958,1.776,1.286,2.734,0.733
	c0.957-0.554,1.285-1.776,0.731-2.734l-1.284-2.223l2.538,0.002c1.106-0.002,2.005-0.896,2.001-2.003
	c0-1.109-0.895-2.005-2.003-2.003l-4.848,0.002l-3.675-6.369l8.544,0.004c0.043,0,0.08-0.021,0.121-0.025
	c0.131-0.008,0.252-0.045,0.381-0.078c0.131-0.035,0.26-0.066,0.379-0.127c0.037-0.019,0.078-0.018,0.115-0.039
	c0.076-0.045,0.123-0.117,0.191-0.17c0.108-0.082,0.212-0.162,0.3-0.264c0.088-0.102,0.152-0.209,0.217-0.322
	c0.062-0.108,0.121-0.213,0.162-0.33c0.045-0.133,0.065-0.264,0.082-0.402c0.01-0.084,0.049-0.158,0.049-0.246
	c0-0.043-0.021-0.078-0.023-0.119c-0.008-0.129-0.045-0.251-0.078-0.378c-0.035-0.139-0.07-0.271-0.133-0.395
	c-0.018-0.035-0.016-0.072-0.035-0.105l-4.271-7.396h7.356l2.421,4.2c0.555,0.953,1.775,1.282,2.737,0.732
	c0.955-0.557,1.283-1.779,0.729-2.734l-1.268-2.198h2.569c1.106,0,2.001-0.896,2.001-2.001
	C704,670.965,703.105,670.069,701.999,670.069z M686.527,663.677l-3.69,6.392h-0.451l-3.467-6.004l0.225-0.389H686.527z
	 M675.453,678.072h-6.928l-3.466-6.002l3.466-6.002h6.928l3.466,6.002L675.453,678.072z M671.989,655.283l3.69,6.394l-0.225,0.39
	h-6.932l-0.225-0.392L671.989,655.283z M657.451,663.677h7.384l0.225,0.391l-3.467,6.002h-0.453L657.451,663.677z M657.451,680.464
	l3.688-6.393h0.453l3.467,6.002l-0.225,0.391H657.451z M671.989,688.857l-3.69-6.395l0.225-0.39h6.932l0.225,0.39L671.989,688.857z
	 M686.527,680.464h-7.384l-0.225-0.389l3.467-6.004h0.451L686.527,680.464z"/>
<path fill="#469FCC" d="M447.26,670.576l-5.673-5.675c-0.784-0.784-2.053-0.784-2.837,0l-5.087,5.087h-6.418l2.278-3.938
	c0.02-0.033,0.02-0.072,0.035-0.107c0.062-0.123,0.096-0.253,0.132-0.39c0.035-0.132,0.07-0.257,0.078-0.39
	c0.002-0.041,0.023-0.074,0.023-0.116c0-0.084-0.037-0.156-0.047-0.238c-0.018-0.142-0.035-0.276-0.083-0.41
	c-0.041-0.119-0.1-0.225-0.162-0.333c-0.065-0.115-0.129-0.223-0.22-0.325c-0.086-0.1-0.186-0.176-0.292-0.256
	c-0.072-0.056-0.119-0.13-0.199-0.177c-0.039-0.021-0.082-0.021-0.122-0.041c-0.109-0.055-0.227-0.082-0.349-0.117
	c-0.141-0.039-0.277-0.079-0.421-0.087c-0.039-0.002-0.07-0.021-0.109-0.021h-4.551l3.034-5.258l6.95-1.86
	c1.07-0.288,1.704-1.388,1.419-2.457l-2.077-7.754c-0.288-1.069-1.387-1.704-2.456-1.418l-7.754,2.078
	c-1.069,0.288-1.704,1.388-1.418,2.457l1.865,6.948l-3.039,5.262l-2.271-3.945c-0.021-0.037-0.059-0.057-0.08-0.092
	c-0.072-0.108-0.162-0.194-0.255-0.288c-0.102-0.103-0.199-0.202-0.319-0.28c-0.031-0.02-0.049-0.053-0.082-0.072
	c-0.068-0.039-0.145-0.041-0.216-0.072c-0.137-0.061-0.27-0.114-0.417-0.142c-0.119-0.023-0.233-0.025-0.355-0.025
	c-0.135,0-0.265,0.002-0.399,0.027c-0.131,0.027-0.249,0.076-0.372,0.128c-0.082,0.033-0.171,0.037-0.249,0.084
	c-0.037,0.021-0.059,0.059-0.094,0.082c-0.104,0.068-0.189,0.157-0.278,0.245c-0.105,0.104-0.208,0.203-0.288,0.325
	c-0.02,0.031-0.051,0.049-0.07,0.08l-2.276,3.941l-3.034-5.258l1.862-6.948c0.286-1.071-0.349-2.169-1.418-2.457l-7.754-2.078
	c-1.069-0.286-2.168,0.349-2.456,1.418l-2.076,7.754c-0.286,1.069,0.349,2.171,1.418,2.457l6.95,1.86l3.036,5.26l-4.55-0.006
	c-0.044,0-0.079,0.021-0.122,0.023c-0.127,0.008-0.247,0.044-0.372,0.077c-0.143,0.037-0.278,0.072-0.407,0.137
	c-0.033,0.018-0.068,0.016-0.103,0.035c-0.066,0.037-0.103,0.1-0.164,0.145c-0.123,0.093-0.239,0.183-0.339,0.298
	c-0.078,0.091-0.136,0.187-0.194,0.286c-0.07,0.12-0.135,0.235-0.18,0.37c-0.041,0.124-0.057,0.247-0.074,0.377
	c-0.012,0.09-0.054,0.168-0.054,0.262c0,0.046,0.023,0.083,0.025,0.126c0.009,0.121,0.042,0.236,0.073,0.356
	c0.035,0.147,0.072,0.286,0.139,0.417c0.016,0.031,0.016,0.068,0.033,0.1l2.276,3.941h-6.072l-5.086-5.087
	c-0.783-0.784-2.053-0.784-2.837,0l-5.675,5.675c-0.783,0.784-0.783,2.053,0,2.837l5.675,5.675c0.784,0.783,2.054,0.783,2.837,0
	l5.086-5.087h6.072l-2.278,3.938c-0.021,0.037-0.021,0.08-0.039,0.117c-0.057,0.113-0.088,0.237-0.121,0.36
	c-0.039,0.141-0.076,0.276-0.085,0.419c-0.002,0.038-0.022,0.069-0.022,0.108c0,0.078,0.036,0.144,0.046,0.219
	c0.016,0.151,0.037,0.294,0.086,0.438c0.039,0.113,0.096,0.211,0.154,0.315c0.066,0.119,0.136,0.231,0.226,0.337
	c0.088,0.098,0.187,0.174,0.29,0.254c0.072,0.056,0.121,0.13,0.201,0.177c0.04,0.021,0.083,0.021,0.122,0.041
	c0.109,0.055,0.226,0.082,0.345,0.116c0.145,0.041,0.284,0.08,0.431,0.086c0.035,0.002,0.066,0.022,0.104,0.022h4.552l-3.208,5.556
	l-6.951,1.862c-1.069,0.288-1.704,1.388-1.418,2.457l2.076,7.752c0.29,1.069,1.388,1.704,2.457,1.418l7.754-2.077
	c1.069-0.288,1.704-1.387,1.418-2.456l-1.861-6.95l3.207-5.556l2.271,3.941c0.021,0.037,0.057,0.057,0.08,0.092
	c0.07,0.105,0.163,0.194,0.255,0.288c0.102,0.104,0.199,0.204,0.319,0.28c0.031,0.021,0.049,0.053,0.082,0.072
	c0.066,0.039,0.142,0.041,0.212,0.07c0.139,0.062,0.274,0.116,0.423,0.145c0.117,0.022,0.231,0.023,0.351,0.023
	c0.137,0.002,0.267,0,0.403-0.027c0.13-0.025,0.247-0.075,0.368-0.126c0.085-0.033,0.171-0.037,0.251-0.084
	c0.037-0.021,0.059-0.06,0.097-0.084c0.104-0.068,0.188-0.157,0.277-0.247c0.104-0.102,0.206-0.2,0.282-0.319
	c0.022-0.033,0.055-0.051,0.074-0.084l2.276-3.941l3.207,5.556l-1.863,6.95c-0.285,1.069,0.35,2.171,1.419,2.456l7.751,2.077
	c1.072,0.286,2.169-0.349,2.457-1.418l2.078-7.752c0.286-1.071-0.349-2.169-1.418-2.457l-6.95-1.862l-3.209-5.558l4.549,0.006
	c0.043,0,0.078-0.021,0.119-0.023c0.134-0.008,0.259-0.045,0.39-0.078c0.134-0.038,0.263-0.069,0.385-0.132
	c0.035-0.018,0.076-0.018,0.111-0.037c0.072-0.041,0.115-0.109,0.182-0.161c0.114-0.084,0.222-0.168,0.315-0.275
	c0.083-0.097,0.145-0.2,0.208-0.31c0.066-0.112,0.127-0.222,0.17-0.347c0.044-0.13,0.061-0.259,0.079-0.393
	c0.012-0.088,0.051-0.164,0.051-0.254c0-0.043-0.021-0.081-0.025-0.122c-0.008-0.127-0.041-0.247-0.074-0.37
	c-0.038-0.139-0.071-0.274-0.136-0.401c-0.018-0.033-0.016-0.072-0.035-0.106l-2.276-3.941h6.416l5.087,5.087
	c0.784,0.783,2.053,0.783,2.837,0l5.673-5.675C448.043,672.629,448.043,671.36,447.26,670.576z M391.681,674.831l-2.837-2.839
	l2.837-2.836l2.837,2.838L391.681,674.831z M424.314,667.051l-1.696,2.938h-3.391l1.696-2.938H424.314z M429.208,648.695
	l1.038,3.874l-3.877,1.034l-1.038-3.874L429.208,648.695z M415.75,662.107l1.698,2.938l-1.696,2.938l-1.696-2.94L415.75,662.107z
	 M405.135,653.604l-3.875-1.038l1.04-3.874l3.875,1.038L405.135,653.604z M407.189,667.053l3.393-0.002l1.697,2.938h-3.396
	L407.189,667.053z M407.191,676.938l1.694-2.937h3.394l-1.697,2.939L407.191,676.938z M402.126,695.596l-1.038-3.874l3.874-1.037
	L406,694.56L402.126,695.596z M415.752,681.88l-1.696-2.935l1.696-2.939l1.696,2.937L415.752,681.88z M426.544,690.683l3.875,1.039
	l-1.04,3.874l-3.875-1.038L426.544,690.683z M419.226,674.001h3.393l1.694,2.937l-3.391,0.002L419.226,674.001z M440.168,674.831
	l-2.836-2.839l2.836-2.836l2.837,2.838L440.168,674.831z"/>
<path fill="#469FCC" d="M318,670.051h-4.568l2.27-3.928c0.553-0.957,0.225-2.178-0.732-2.732c-0.957-0.551-2.18-0.225-2.73,0.73
	l-3.422,5.93h-13.348l5.656-3.266c0.957-0.555,1.285-1.777,0.73-2.734c-0.551-0.957-1.773-1.285-2.73-0.73l-5.662,3.268
	l6.678-11.565h6.846c1.102,0,1.998-0.891,1.994-1.998c0.002-1.107-0.887-2.002-1.992-2l-4.539,0.002l2.283-3.957
	c0.553-0.957,0.225-2.18-0.732-2.731c-0.957-0.555-2.18-0.227-2.73,0.733l-2.285,3.959l-2.266-3.934
	c-0.555-0.961-1.775-1.285-2.736-0.731c-0.959,0.551-1.283,1.77-0.73,2.727l3.426,5.933L290,664.592v-6.541c0-1.105-0.895-2-2-2
	s-2,0.895-2,2v6.535l-6.676-11.562l3.422-5.93c0.551-0.953,0.227-2.176-0.732-2.727c-0.959-0.555-2.178-0.23-2.729,0.727
	l-2.27,3.932l-2.283-3.955c-0.553-0.957-1.775-1.285-2.732-0.731c-0.957,0.551-1.285,1.773-0.73,2.731l2.285,3.957l-4.539-0.004
	c-1.107,0-2,0.895-2,2.004c-0.002,1.106,0.891,1.996,1.996,1.996h6.85l6.678,11.566l-5.664-3.269
	c-0.957-0.555-2.18-0.227-2.73,0.732c-0.555,0.955-0.227,2.178,0.728,2.733l5.656,3.266h-13.346l-3.424-5.93
	c-0.551-0.953-1.772-1.281-2.728-0.729c-0.959,0.553-1.287,1.772-0.734,2.729l2.27,3.93H258c-1.105,0-2,0.895-2,2
	c0,1.106,0.895,2,2,2h4.568l-2.271,3.928c-0.553,0.959-0.225,2.178,0.734,2.734c0.957,0.553,2.176,0.225,2.728-0.732l3.424-5.93
	h13.355l-5.664,3.27c-0.957,0.551-1.285,1.773-0.73,2.73c0.551,0.957,1.773,1.285,2.73,0.734l5.664-3.27l-6.676,11.562h-6.852
	c-1.102,0-1.996,0.895-1.996,2c0,1.105,0.893,2,1.996,2h4.541l-2.283,3.955c-0.555,0.957-0.227,2.178,0.728,2.732
	c0.959,0.551,2.182,0.227,2.734-0.734l2.283-3.955l2.266,3.93c0.555,0.959,1.773,1.283,2.734,0.732
	c0.957-0.553,1.283-1.773,0.73-2.73l-3.422-5.93L286,679.514v6.537c0,1.106,0.895,2,2,2s2-0.894,2-2v-6.537l6.678,11.564
	l-3.426,5.93c-0.553,0.955-0.225,2.176,0.732,2.73c0.957,0.551,2.18,0.227,2.73-0.73l2.272-3.932l2.283,3.955
	c0.551,0.959,1.773,1.285,2.73,0.734c0.957-0.555,1.285-1.775,0.732-2.734l-2.283-3.955l4.535,0.002c1.105,0,1.998-0.895,2-2
	c0-1.105-0.895-2-1.998-2h-6.846l-6.672-11.559l5.654,3.266c0.959,0.551,2.182,0.225,2.733-0.734c0.555-0.955,0.227-2.18-0.733-2.73
	l-5.662-3.27h13.355l3.422,5.93c0.551,0.957,1.773,1.283,2.73,0.73c0.957-0.553,1.285-1.773,0.732-2.73l-2.268-3.93H318
	c1.105,0,2-0.894,2-2C320,670.945,319.105,670.051,318,670.051z M288,676.051c-2.209,0-4-1.791-4-4c0-2.209,1.791-4,4-4s4,1.791,4,4
	C292,674.26,290.209,676.051,288,676.051z"/>
<path fill="#469FCC" d="M190,670.041h-4.539l2.27-3.928c0.553-0.959,0.227-2.178-0.73-2.73c-0.961-0.553-2.18-0.227-2.73,0.732
	l-3.42,5.926h-3.531l-6.928-11.998l1.764-3.053H179c1.105,0,2-0.894,2-2c0-1.105-0.895-2-2.004-1.996h-4.535l2.271-3.934
	c0.553-0.957,0.225-2.18-0.732-2.73c-0.957-0.553-2.18-0.227-2.73,0.732l-2.27,3.932l-2.27-3.932
	c-0.553-0.959-1.773-1.285-2.73-0.732c-0.959,0.553-1.285,1.773-0.73,2.73l3.424,5.93l-1.762,3.051h-13.859l-1.762-3.053
	l3.422-5.928c0.553-0.957,0.225-2.18-0.732-2.73c-0.957-0.553-2.18-0.227-2.73,0.734l-2.268,3.928l-2.27-3.932
	c-0.553-0.957-1.775-1.285-2.732-0.73c-0.957,0.551-1.285,1.773-0.73,2.73l2.27,3.932L141,650.99c-1.105,0-2,0.895-2,2
	c0,1.106,0.895,2,2,1.998l6.846-0.002l1.764,3.053l-6.934,12.002h-3.521l-3.422-5.928c-0.553-0.957-1.775-1.285-2.732-0.732
	c-0.957,0.553-1.285,1.775-0.73,2.732l2.27,3.928H130c-1.105,0-2,0.894-2,2c0,1.105,0.895,2,2,2h4.539l-2.27,3.928
	c-0.555,0.957-0.227,2.18,0.73,2.732c0.957,0.553,2.18,0.225,2.73-0.732l3.422-5.928h3.527l6.928,12.006l-1.758,3.045H141
	c-1.105,0.004-2.002,0.895-2.002,2.004c0,1.105,0.896,1.996,2.004,1.994h4.539l-2.273,3.936c-0.553,0.955-0.225,2.176,0.73,2.731
	c0.959,0.551,2.182,0.227,2.732-0.731l2.27-3.932l2.268,3.93c0.555,0.955,1.771,1.283,2.729,0.731
	c0.961-0.557,1.287-1.771,0.732-2.729l-3.422-5.926l1.766-3.059l13.857,0.002l1.76,3.049l-3.424,5.93
	c-0.551,0.959-0.227,2.18,0.734,2.734c0.957,0.553,2.178,0.223,2.729-0.738l2.27-3.93l2.271,3.935
	c0.551,0.957,1.773,1.283,2.73,0.733c0.957-0.555,1.285-1.775,0.732-2.733l-2.27-3.932l4.537,0.002
	c1.105-0.002,1.998-0.893,1.998-1.998c-0.002-1.109-0.893-2-1.998-1.998h-6.844l-1.764-3.057l6.928-12h3.521l3.424,5.93
	c0.555,0.957,1.775,1.285,2.734,0.732c0.957-0.553,1.283-1.775,0.727-2.732l-2.268-3.93H190c1.105,0,2-0.895,2-2
	C192,670.935,191.105,670.041,190,670.041z M172.701,670.041h-4.617l0.846,1.465l-3.156-5.465l2.309-4L172.701,670.041z
	 M162.309,676.045l-4.621-0.002l-2.311-4.002l2.312-4h4.619l2.312,4.002L162.309,676.045z M164.621,660.041l-2.309,4h-4.621
	l-2.309-4H164.621z M151.918,662.041l2.307,3.994l-2.311,4.006h-4.615L151.918,662.041z M147.299,674.041h4.613l-0.844-1.461
	l4,6.924l-0.842-1.457l-2.309,3.998L147.299,674.041z M155.383,684.041l2.307-3.996H156l6.311-0.002l2.309,3.998H155.383z
	 M168.082,682.041l-2.307-3.998l-0.846,1.465l3.154-5.467h4.617L168.082,682.041z"/>
<g>
	<path fill="#DAE2E5" d="M304,148c0-2.209-1.791-4-4-4h-40c-2.209,0-4,1.791-4,4s1.791,4,4,4c-2,2-4,4.27-4,12
		c0,5.639,1.344,10.488,6.148,12.705c-0.092,0.418-0.148,0.85-0.148,1.295c0,3.086,2.336,5.598,5.332,5.934
		C269.566,188.695,274.391,192,280,192s10.434-3.305,12.668-8.066c2.996-0.336,5.332-2.848,5.332-5.934
		c0-0.445-0.057-0.877-0.148-1.295C302.658,174.488,304,169.639,304,164c0-7.73-2-10-4-12C302.209,152,304,150.209,304,148z"/>
	<path fill="#EDD87E" d="M260,152v8c0,4.42,3.58,8,8,8s8-1.367,8-1.367c-0.188,1.93,1.789,3.367,4,3.367s4.281-1.562,4-3.367
		c0,0,3.58,1.367,8,1.367s8-3.58,8-8v-8H260z"/>
	<circle opacity="0.1" cx="288" cy="160" r="4"/>
	<circle opacity="0.1" cx="272" cy="160" r="4"/>
	<path fill="#EF4D4D" d="M274,172c0,0,0,6,6,6s6-6,6-6H274z"/>
	<circle fill="#DAE2E5" cx="314" cy="154" r="6"/>
	<path opacity="0.1" d="M314,158c-2.283,0-4.33-0.967-5.789-2.502c0.67,2.584,2.996,4.502,5.789,4.502s5.119-1.918,5.789-4.502
		C318.33,157.033,316.283,158,314,158z"/>
	<g>
		<g>
			<circle fill="#434854" cx="288" cy="160" r="2"/>
			<circle fill="#434854" cx="272" cy="160" r="2"/>
		</g>
	</g>
	<path opacity="0.1" d="M285.648,174c0.348-1.102,0.352-2,0.352-2h-12c0,0,0.004,0.898,0.352,2H285.648z"/>
	<ellipse opacity="0.1" cx="280" cy="167" rx="4" ry="3"/>
	<rect x="260" y="152" opacity="0.1" width="40" height="2"/>
	<g opacity="0.1">
		<path d="M292,184c-1.143,0-3.09-1.445-4-2c0.656,1.281,2,2.781,3.783,3.52c0.326-0.51,0.627-1.035,0.885-1.586
			c0.002,0,0.006-0.002,0.008-0.002C292.451,183.957,292.232,184,292,184z"/>
		<path d="M267.324,183.932c0.002,0,0.006,0.002,0.008,0.002c0.258,0.551,0.559,1.076,0.885,1.586
			c1.783-0.738,3.127-2.238,3.783-3.52c-0.91,0.555-2.857,2-4,2C267.768,184,267.549,183.957,267.324,183.932z"/>
	</g>
	<path fill="#EF4D4D" d="M309.891,149.648c1.074-1.016,2.514-1.648,4.109-1.648c1.531,0,2.912,0.59,3.973,1.535
		C317.574,136.107,307.684,128,294,128h-18c-10,0-16,6-16,16c0,0,32,0,40,0C306.275,144,309.357,148.008,309.891,149.648z"/>
	<path opacity="0.1" fill="#FFFFFF" d="M271.52,134h24.211c7.615,0,14.336,1.893,19.66,5.361C311.555,132.135,303.752,128,294,128
		h-18c-6.842,0-11.809,2.811-14.264,7.787C264.56,134.629,267.828,134,271.52,134z"/>
	<path opacity="0.15" d="M309.891,149.646c0.535-0.506,1.158-0.918,1.852-1.199c0.064-0.027,0.137-0.039,0.201-0.062
		c0.287-0.105,0.574-0.205,0.881-0.266c0.379-0.078,0.772-0.119,1.176-0.119c0.395,0,0.775,0.041,1.146,0.115
		c0.26,0.051,0.504,0.137,0.75,0.221c0.096,0.031,0.197,0.051,0.291,0.09c0.322,0.127,0.627,0.285,0.92,0.465
		c0.006,0.002,0.01,0.004,0.014,0.008c0.305,0.186,0.586,0.4,0.852,0.635c-0.025-0.873-0.096-1.721-0.201-2.547
		c-1.129-0.609-2.4-0.986-3.771-0.986c-1.967,0-3.744,0.736-5.137,1.914C309.395,148.58,309.746,149.203,309.891,149.646z"/>
</g>
<g>
	<path fill="#84BF56" d="M571.785,289.987c0-2.281,0.658-4.505,1.898-6.435c0.303-0.469,0.394-1.047,0.248-1.588
		c-0.144-0.541-0.512-0.996-1.01-1.252c-2.039-1.047-3.721-2.646-4.863-4.623c-1.143-1.977-1.686-4.23-1.572-6.521
		c0.027-0.559-0.182-1.104-0.58-1.5c-0.393-0.395-0.945-0.617-1.498-0.58c-2.258,0.109-4.555-0.438-6.525-1.574
		c-1.975-1.143-3.576-2.822-4.623-4.859c-0.258-0.498-0.711-0.865-1.252-1.01c-0.537-0.148-1.119-0.053-1.59,0.248
		c-3.851,2.486-9.009,2.482-12.868,0c-0.467-0.301-1.049-0.389-1.588-0.248c-0.541,0.145-0.994,0.512-1.252,1.01
		c-1.049,2.039-2.65,3.721-4.625,4.861c-1.969,1.139-4.242,1.682-6.52,1.572c-0.551-0.022-1.105,0.182-1.5,0.58
		c-0.396,0.395-0.607,0.939-0.58,1.5c0.113,2.291-0.432,4.547-1.574,6.525c-1.141,1.973-2.822,3.574-4.859,4.621
		c-0.498,0.258-0.865,0.711-1.01,1.252c-0.146,0.541-0.055,1.119,0.248,1.588c1.24,1.93,1.898,4.155,1.898,6.437
		c0,2.281-0.656,4.506-1.898,6.432c-0.303,0.471-0.394,1.049-0.248,1.59c0.144,0.541,0.512,0.996,1.01,1.252
		c2.037,1.047,3.721,2.648,4.863,4.625c1.143,1.977,1.686,4.229,1.572,6.52c-0.027,0.559,0.182,1.103,0.58,1.5
		c0.393,0.395,0.93,0.617,1.498,0.58c2.248-0.113,4.553,0.438,6.525,1.574c1.973,1.141,3.572,2.822,4.623,4.861
		c0.256,0.496,0.709,0.863,1.25,1.008c0.168,0.045,0.342,0.068,0.514,0.068c0.379,0,0.75-0.107,1.074-0.316
		c3.861-2.48,9.01-2.484,12.87,0c0.473,0.303,1.051,0.395,1.588,0.248c0.541-0.145,0.994-0.512,1.252-1.01
		c1.047-2.037,2.648-3.719,4.625-4.861c1.967-1.137,4.24-1.685,6.521-1.572c0.031,0.002,0.065,0.002,0.094,0.002
		c0.016,0.002,0.029,0.002,0.039,0c1.098,0,1.986-0.889,1.986-1.986c0-0.158-0.018-0.312-0.053-0.461
		c-0.039-2.166,0.506-4.287,1.586-6.158c1.141-1.973,2.822-3.574,4.861-4.623c0.498-0.258,0.865-0.711,1.01-1.252
		c0.146-0.541,0.055-1.119-0.248-1.59C572.441,294.495,571.785,292.269,571.785,289.987z M543.989,301.987c-6.627,0-12-5.373-12-12
		c0-6.626,5.373-11.999,12-11.999c6.626,0,11.999,5.373,11.999,11.999C555.988,296.614,550.615,301.987,543.989,301.987z"/>
	<g opacity="0.2">
		<path fill="#F1F1F1" d="M515.013,284.877c1.324-1.012,2.455-2.258,3.295-3.709c0.916-1.586,1.469-3.338,1.639-5.146
			c-0.014,0.023-0.021,0.049-0.035,0.072c-1.141,1.973-2.822,3.574-4.859,4.621c-0.498,0.258-0.865,0.711-1.01,1.252
			c-0.146,0.541-0.055,1.119,0.248,1.588C514.563,283.98,514.798,284.426,515.013,284.877z"/>
		<path fill="#F1F1F1" d="M569.662,281.164c0.842,1.455,1.973,2.701,3.299,3.711c0.215-0.451,0.449-0.897,0.723-1.322
			c0.303-0.469,0.394-1.047,0.248-1.588c-0.144-0.541-0.512-0.996-1.01-1.252c-2.039-1.047-3.721-2.646-4.863-4.623
			c-0.012-0.021-0.02-0.045-0.033-0.068C568.193,277.83,568.746,279.58,569.662,281.164z"/>
		<path fill="#F1F1F1" d="M522.204,271.988c2.43,0.117,4.855-0.461,6.955-1.676c2.105-1.217,3.814-3.012,4.932-5.185
			c0.275-0.531,0.76-0.924,1.336-1.078c0.576-0.148,1.195-0.055,1.693,0.266c4.117,2.648,9.619,2.652,13.726,0
			c0.502-0.32,1.123-0.424,1.697-0.266c0.576,0.154,1.06,0.547,1.334,1.078c1.117,2.172,2.826,3.965,4.932,5.183
			c2.102,1.211,4.553,1.795,6.961,1.678c0.311-0.022,0.615,0.043,0.899,0.162c-0.143-0.85-0.225-1.709-0.182-2.582
			c0.027-0.559-0.182-1.104-0.58-1.5c-0.393-0.395-0.945-0.617-1.498-0.58c-2.258,0.109-4.555-0.438-6.525-1.574
			c-1.975-1.143-3.576-2.822-4.623-4.859c-0.258-0.498-0.711-0.865-1.252-1.01c-0.537-0.148-1.119-0.053-1.59,0.248
			c-3.851,2.486-9.009,2.482-12.868,0c-0.467-0.301-1.049-0.389-1.588-0.248c-0.541,0.145-0.994,0.512-1.252,1.01
			c-1.049,2.039-2.65,3.721-4.625,4.861c-1.969,1.139-4.242,1.682-6.52,1.572c-0.551-0.022-1.105,0.182-1.5,0.58
			c-0.396,0.395-0.607,0.939-0.58,1.5c0.043,0.875-0.039,1.738-0.184,2.59C521.587,272.041,521.894,271.977,522.204,271.988z"/>
	</g>
	<path fill="#EF4D4D" d="M559.09,256.332c-0.562-0.371-1.273-0.432-1.889-0.168l-9.614,4.119c-0.645-1.344-2.006-2.281-3.598-2.281
		c-1.592,0-2.953,0.938-3.598,2.281l-9.615-4.119c-0.615-0.268-1.326-0.205-1.889,0.168c-0.561,0.371-0.898,0.998-0.898,1.67v12
		c0,0.672,0.338,1.299,0.898,1.67c0.332,0.219,0.717,0.33,1.102,0.33c0.267,0,0.535-0.053,0.787-0.162l9.615-4.119
		c0.644,1.344,2.006,2.281,3.598,2.281c1.592,0,2.953-0.938,3.598-2.281l9.614,4.119c0.252,0.109,0.52,0.162,0.787,0.162
		c0.385,0,0.77-0.111,1.102-0.33c0.561-0.371,0.898-0.998,0.898-1.67v-12C559.988,257.33,559.65,256.703,559.09,256.332z"/>
	<g opacity="0.15">
		<path d="M540.392,260.283l-2.402-1.027v9.492l2.402-1.027c-0.25-0.523-0.402-1.102-0.402-1.719v-4
			C539.989,261.385,540.142,260.807,540.392,260.283z"/>
		<path d="M547.587,267.721l2.401,1.027v-9.492l-2.401,1.027c0.25,0.523,0.402,1.102,0.402,1.719v4
			C547.989,266.619,547.837,267.197,547.587,267.721z"/>
	</g>
	<circle fill="#EF4D4D" cx="543.989" cy="308.001" r="2"/>
	<path opacity="0.1" d="M543.989,310.001c-0.733,0-1.346-0.412-1.693-1c-0.178,0.299-0.307,0.627-0.307,1c0,1.105,0.894,2,2,2
		c1.105,0,2-0.895,2-2c0-0.373-0.129-0.701-0.307-1C545.335,309.589,544.722,310.001,543.989,310.001z"/>
	<circle fill="#EF4D4D" cx="555.988" cy="304.001" r="2"/>
	<path opacity="0.1" d="M555.988,306.001c-0.732,0-1.346-0.412-1.693-1c-0.178,0.299-0.307,0.627-0.307,1c0,1.105,0.895,2,2,2
		c1.106,0,2-0.895,2-2c0-0.373-0.129-0.701-0.307-1C557.334,305.589,556.721,306.001,555.988,306.001z"/>
	<circle fill="#EF4D4D" cx="561.988" cy="294.001" r="2"/>
	<path opacity="0.1" d="M561.988,296.001c-0.732,0-1.346-0.412-1.693-1c-0.178,0.299-0.307,0.627-0.307,1c0,1.105,0.895,2,2,2
		c1.106,0,2-0.895,2-2c0-0.373-0.129-0.701-0.307-1C563.334,295.589,562.721,296.001,561.988,296.001z"/>
	<circle fill="#EF4D4D" cx="561.988" cy="282.002" r="2"/>
	<path opacity="0.1" d="M561.988,284.002c-0.732,0-1.346-0.412-1.693-1c-0.178,0.299-0.307,0.627-0.307,1c0,1.105,0.895,2,2,2
		c1.106,0,2-0.895,2-2c0-0.373-0.129-0.701-0.307-1C563.334,283.59,562.721,284.002,561.988,284.002z"/>
	<circle fill="#EF4D4D" cx="525.989" cy="282.002" r="2"/>
	<path opacity="0.1" d="M525.989,284.002c-0.733,0-1.346-0.412-1.693-1c-0.178,0.299-0.307,0.627-0.307,1c0,1.105,0.894,2,2,2
		c1.105,0,2-0.895,2-2c0-0.373-0.129-0.701-0.307-1C527.335,283.59,526.722,284.002,525.989,284.002z"/>
	<circle fill="#EF4D4D" cx="525.989" cy="294.001" r="2"/>
	<path opacity="0.1" d="M525.989,296.001c-0.733,0-1.346-0.412-1.693-1c-0.178,0.299-0.307,0.627-0.307,1c0,1.105,0.894,2,2,2
		c1.105,0,2-0.895,2-2c0-0.373-0.129-0.701-0.307-1C527.335,295.589,526.722,296.001,525.989,296.001z"/>
	<circle fill="#EF4D4D" cx="531.989" cy="304.001" r="2"/>
	<path opacity="0.1" d="M531.989,306.001c-0.733,0-1.346-0.412-1.693-1c-0.178,0.299-0.307,0.627-0.307,1c0,1.105,0.894,2,2,2
		c1.105,0,2-0.895,2-2c0-0.373-0.129-0.701-0.307-1C533.335,305.589,532.722,306.001,531.989,306.001z"/>
	<g opacity="0.15">
		<path d="M528.888,273.674c0.332,0.219,0.717,0.33,1.102,0.33c0.267,0,0.535-0.053,0.787-0.162l9.615-4.119
			c0.644,1.344,2.006,2.281,3.598,2.281c1.592,0,2.953-0.938,3.598-2.281l9.614,4.119c0.252,0.109,0.52,0.162,0.787,0.162
			c0.385,0,0.77-0.111,1.102-0.33c0.561-0.371,0.898-0.998,0.898-1.67v-2.002c0,0.672-0.338,1.299-0.898,1.67
			c-0.332,0.219-0.717,0.33-1.102,0.33c-0.268,0-0.535-0.053-0.787-0.162l-9.614-4.119c-0.645,1.344-2.006,2.281-3.598,2.281
			c-1.592,0-2.953-0.938-3.598-2.281l-9.615,4.119c-0.252,0.109-0.52,0.162-0.787,0.162c-0.385,0-0.77-0.111-1.102-0.33
			c-0.561-0.371-0.898-0.998-0.898-1.67v2.002C527.989,272.676,528.327,273.303,528.888,273.674z"/>
		<path d="M573.684,296.421c-0.566-0.879-0.996-1.826-1.312-2.809c-1.066,0.92-1.994,1.994-2.705,3.225
			c-1.154,1.996-1.734,4.26-1.691,6.568c0.037,0.16,0.055,0.322,0.055,0.492c0,0.031-0.016,0.057-0.018,0.088
			c0.018-0.031,0.029-0.066,0.049-0.1c1.141-1.973,2.822-3.574,4.861-4.623c0.498-0.258,0.865-0.711,1.01-1.252
			C574.078,297.47,573.986,296.892,573.684,296.421z"/>
		<path d="M565.912,306.015c-0.012,0.004-0.027,0.004-0.043,0c-0.031,0-0.066,0-0.102-0.002c-2.432-0.119-4.855,0.465-6.953,1.68
			c-2.109,1.219-3.818,3.01-4.934,5.184c-0.277,0.531-0.76,0.922-1.338,1.076c-0.57,0.156-1.19,0.059-1.693-0.264
			c-4.116-2.648-9.608-2.647-13.726,0c-0.346,0.225-0.744,0.338-1.147,0.338c-0.184,0-0.369-0.025-0.547-0.074
			c-0.578-0.154-1.061-0.545-1.336-1.072c-1.119-2.178-2.826-3.969-4.93-5.186c-2.105-1.215-4.562-1.801-6.959-1.682
			c-0.584,0.039-1.131-0.188-1.543-0.58c0.625,1.572,0.908,3.264,0.824,4.977c-0.027,0.559,0.182,1.103,0.58,1.5
			c0.393,0.395,0.93,0.617,1.498,0.58c2.248-0.113,4.553,0.438,6.525,1.574c1.973,1.141,3.572,2.822,4.623,4.861
			c0.256,0.496,0.709,0.863,1.25,1.008c0.168,0.045,0.342,0.068,0.514,0.068c0.379,0,0.75-0.107,1.074-0.316
			c3.861-2.48,9.01-2.484,12.87,0c0.473,0.303,1.051,0.395,1.588,0.248c0.541-0.145,0.994-0.512,1.252-1.01
			c1.047-2.037,2.648-3.719,4.625-4.861c1.967-1.137,4.24-1.685,6.521-1.572c0.031,0.002,0.065,0.002,0.094,0.002
			c0.016,0.002,0.029,0.002,0.039,0c1.098,0,1.986-0.889,1.986-1.986c0-0.158-0.018-0.312-0.053-0.461
			c-0.029-1.578,0.262-3.129,0.834-4.58C566.934,305.796,566.453,306.015,565.912,306.015z"/>
		<path d="M518.31,296.843c-0.713-1.232-1.641-2.309-2.707-3.229c-0.316,0.98-0.744,1.93-1.312,2.809
			c-0.303,0.471-0.394,1.049-0.248,1.59c0.144,0.541,0.512,0.996,1.01,1.252c2.037,1.047,3.721,2.648,4.863,4.625
			c0.051,0.088,0.084,0.184,0.133,0.273c-0.016-0.125-0.065-0.242-0.059-0.369C520.108,301.351,519.528,298.948,518.31,296.843z"/>
		<path d="M531.989,286.002c0,0.683,0.07,1.347,0.18,1.999c0.955-5.671,5.877-9.999,11.82-9.999c5.942,0,10.864,4.328,11.819,9.999
			c0.109-0.652,0.18-1.316,0.18-1.999c0-6.627-5.373-12-11.999-12C537.362,274.002,531.989,279.375,531.989,286.002z"/>
	</g>
</g>
<g>
	<path fill="#E29460" d="M134,574c0,1.106,0.895,2,2,2h48c1.105,0,2-0.894,2-2v-28h-52V574z"/>
	<path fill="#DAE2E5" d="M191.703,540.951l-16-22C175.34,518.359,174.695,518,174,518h-28c-0.695,0-1.34,0.359-1.703,0.951l-16,22
		c-0.381,0.617-0.397,1.393-0.043,2.025c0.354,0.631,1.021,1.023,1.746,1.023h60c0.725,0,1.393-0.393,1.746-1.023
		C192.1,542.344,192.084,541.568,191.703,540.951z"/>
	<path opacity="0.1" d="M190,542h-60c-0.713,0-1.369-0.383-1.727-0.996c-0.352,0.607-0.363,1.357-0.02,1.973
		c0.354,0.631,1.021,1.023,1.746,1.023h60c0.725,0,1.393-0.393,1.746-1.023c0.344-0.615,0.332-1.365-0.02-1.973
		C191.369,541.617,190.713,542,190,542z"/>
	<g opacity="0.15">
		<rect x="134" y="570" width="52" height="2"/>
		<rect x="134" y="564" width="52" height="2"/>
		<rect x="134" y="558" width="52" height="2"/>
		<rect x="134" y="552" width="52" height="2"/>
		<rect x="134" y="546" width="52" height="2"/>
	</g>
	<path fill="#434854" d="M152,554c-4.418,0-8,3.582-8,8v14h16v-14C160,557.582,156.418,554,152,554z"/>
	<rect x="166" y="554" fill="#434854" width="10" height="10"/>
	<polygon fill="#E29460" points="176,558 172,558 172,554 170,554 170,558 166,558 166,560 170,560 170,564 172,564 172,560 
		176,560 	"/>
	<rect x="166" y="558" opacity="0.1" width="10" height="2"/>
	<rect x="150" y="516" fill="#EF4D4D" width="8" height="8"/>
	<path fill="#DAE2E5" d="M160,514c0,1.106-0.895,2-2,2h-8c-1.105,0-2-0.894-2-2l0,0c0-1.106,0.895-2,2-2h8
		C159.105,512,160,512.894,160,514L160,514z"/>
	<path fill="#EF4D4D" d="M132,546h56c1.105,0,2-0.894,2-2h-60C130,545.106,130.895,546,132,546z"/>
	<path opacity="0.1" d="M150,516h8c1.105,0,2-0.894,2-2h-12C148,515.106,148.895,516,150,516z"/>
	<rect x="150" y="516" opacity="0.15" width="8" height="2"/>
</g>
<g>
	<path fill="#434854" d="M672,512c-3.315,0-6,2.685-6,6v2h4v-2c0-1.106,0.894-2,2-2c1.105,0,2,0.894,2,2v2h4v-2
		C678,514.685,675.315,512,672,512z"/>
	<g opacity="0.3">
		<rect x="666" y="518" width="4" height="2"/>
		<rect x="674" y="518" width="4" height="2"/>
	</g>
	<path fill="#469FCC" d="M672.263,522.035L672,521.964l-0.263,0.071C671.51,522.098,649,528.474,649,549
		c0,21.549,22.551,26.924,22.778,26.976l0.222,0.05l0.222-0.05C672.449,575.924,695,570.549,695,549
		C695,528.474,672.49,522.098,672.263,522.035z"/>
	<path fill="#434854" d="M671.737,522.035l0.263-0.071l0.263,0.071c0.089,0.024,3.547,1.009,7.737,3.401V522c0-1.106-0.895-2-2-2
		h-12c-1.106,0-2,0.894-2,2v3.437C668.19,523.044,671.648,522.06,671.737,522.035z"/>
	<g>
		<path fill="#EACA44" d="M653.654,545.674c0.781,0.781,2.047,0.781,2.828,0l2.828-2.828l2.828,2.828
			c0.783,0.781,2.047,0.781,2.83,0l2.818-2.818l2.803,2.803c0.783,0.781,2.047,0.781,2.83,0l2.828-2.828l2.828,2.828
			c0.781,0.781,2.047,0.781,2.828,0l2.828-2.828l0.704,0.704v0.034l2.106,2.105c0.783,0.781,2.047,0.781,2.83,0l2.828-2.828
			l1.35,1.35c-0.415-2.209-1.102-4.219-1.988-6.046c-0.067,0.023-0.139,0.03-0.204,0.061c-0.039,0.017-0.075,0.039-0.113,0.059
			c-0.154,0.084-0.303,0.185-0.435,0.312c-0.002,0.002-0.003,0.002-0.005,0.004l-0.003,0.003c-0.005,0.005-0.011,0.008-0.016,0.013
			l-2.811,2.814l-2.828-2.83c-0.781-0.781-2.047-0.781-2.828,0l-2.828,2.83l-2.828-2.83c-0.781-0.781-2.047-0.781-2.828,0
			l-2.828,2.83l-2.83-2.83c-0.033-0.033-0.078-0.045-0.113-0.076v-0.008c-0.021-0.018-0.047-0.021-0.068-0.039
			c-0.375-0.297-0.816-0.445-1.269-0.43c-0.039,0-0.074,0.014-0.113,0.018c-0.193,0.018-0.381,0.049-0.564,0.121
			c-0.068,0.027-0.127,0.076-0.193,0.111c-0.125,0.068-0.258,0.117-0.369,0.211v0.039c-0.031,0.027-0.07,0.037-0.102,0.068
			l-2.83,2.83l-2.828-2.83c-0.781-0.781-2.047-0.781-2.828,0l-2.828,2.83l-2.828-2.83c-0.229-0.229-0.502-0.383-0.789-0.478
			c-0.896,1.842-1.591,3.872-2.006,6.103l1.381-1.381L653.654,545.674z"/>
		<path fill="#EACA44" d="M694.614,549.342c-0.611-0.611-1.517-0.737-2.257-0.392c-0.039,0.018-0.075,0.039-0.113,0.06
			c-0.154,0.084-0.303,0.184-0.435,0.312c-0.002,0.002-0.003,0.002-0.005,0.004l-0.003,0.003c-0.005,0.005-0.011,0.008-0.016,0.013
			l-2.811,2.815l-2.828-2.83c-0.781-0.781-2.047-0.781-2.828,0l-2.828,2.83l-2.828-2.83c-0.781-0.781-2.047-0.781-2.828,0
			l-2.828,2.83l-2.83-2.83c-0.033-0.033-0.078-0.045-0.113-0.076v-0.008c-0.021-0.018-0.047-0.021-0.068-0.039
			c-0.375-0.297-0.816-0.445-1.269-0.43c-0.039,0-0.074,0.014-0.113,0.018c-0.193,0.018-0.381,0.049-0.564,0.121
			c-0.068,0.027-0.127,0.076-0.193,0.111c-0.125,0.068-0.258,0.117-0.369,0.211v0.039c-0.031,0.027-0.07,0.037-0.102,0.068
			l-2.83,2.83l-2.828-2.83c-0.781-0.781-2.047-0.781-2.828,0l-2.828,2.83l-2.828-2.83c-0.781-0.781-2.047-0.781-2.828,0
			l-0.389,0.389c0.045,1.807,0.238,3.503,0.575,5.083l1.228-1.228l2.828,2.828c0.781,0.781,2.047,0.781,2.828,0l2.828-2.828
			l2.828,2.828c0.783,0.781,2.047,0.781,2.83,0l2.818-2.818l2.803,2.803c0.783,0.781,2.047,0.781,2.83,0l2.828-2.828l2.828,2.828
			c0.781,0.781,2.047,0.781,2.828,0l2.828-2.828l0.704,0.704v0.034l2.106,2.106c0.783,0.781,2.047,0.781,2.83,0l2.828-2.828
			l1.206,1.206c0.336-1.581,0.528-3.279,0.57-5.087L694.614,549.342z"/>
	</g>
	<path opacity="0.15" d="M672.302,566.932L672,567l-0.302-0.068c-0.201-0.046-13.232-3.16-22.333-13.382
		c2.864,17.791,22.202,22.414,22.413,22.462l0.222,0.05l0.222-0.05c0.211-0.048,19.549-4.671,22.413-22.462
		C685.534,563.771,672.503,566.886,672.302,566.932z"/>
</g>
<g>
	<path fill="#84BF56" d="M388,316c0,2.209,1.791,4,4,4h48c2.209,0,4-1.791,4-4v-48h-56V316z"/>
	<polygon fill="#434854" points="444,268 434,262 442,256 390,256 398,262 388,268 	"/>
	<g>
		<polygon fill="#EACA44" points="390,266.801 398,262 390,256 		"/>
		<polygon fill="#EACA44" points="434,262 442,266.801 442,256 		"/>
	</g>
	<g opacity="0.2">
		<polygon points="390,266.801 398,262 390,256 		"/>
		<polygon points="434,262 442,266.801 442,256 		"/>
	</g>
	<g opacity="0.1">
		<polygon fill="#FFFFFF" points="434,262 434,268 444,268 		"/>
		<polygon fill="#FFFFFF" points="398,268 398,262 388,268 		"/>
	</g>
	<rect x="398" y="266" opacity="0.3" width="36" height="2"/>
	<g opacity="0.15">
		<circle cx="432" cy="276" r="4"/>
		<circle cx="400" cy="276" r="4"/>
	</g>
	<path fill="#EACA44" d="M432,274c-1.105,0-2,0.895-2,2c0,7.732-6.268,14-14,14c-7.732,0-14-6.268-14-14c0-1.105-0.895-2-2-2
		s-2,0.895-2,2c0,9.941,8.059,18,18,18s18-8.059,18-18C434,274.895,433.105,274,432,274z"/>
	<path opacity="0.2" d="M416,294c-9.402,0-17.109-7.209-17.92-16.4c-0.027,0.135-0.08,0.258-0.08,0.4c0,9.941,8.059,18,18,18
		s18-8.059,18-18c0-0.143-0.053-0.268-0.08-0.4C433.109,286.791,425.402,294,416,294z"/>
	<g opacity="0.15">
		<path d="M400,272c-2.209,0-4,1.791-4,4c0,0.348,0.059,0.68,0.141,1c0.447-1.723,1.998-3,3.859-3s3.412,1.277,3.859,3
			c0.082-0.32,0.141-0.652,0.141-1C404,273.791,402.209,272,400,272z"/>
		<path d="M432,272c-2.209,0-4,1.791-4,4c0,0.348,0.059,0.68,0.141,1c0.447-1.723,1.998-3,3.859-3s3.412,1.277,3.859,3
			c0.082-0.32,0.141-0.652,0.141-1C436,273.791,434.209,272,432,272z"/>
	</g>
	<g opacity="0.15">
		<path d="M421.2,301.99c-0.275-0.479-0.887-0.641-1.365-0.365l-2.83,1.635v-3.27c0-0.553-0.447-1-1-1c-0.553,0-1,0.447-1,1v3.27
			l-2.833-1.635c-0.479-0.275-1.088-0.113-1.365,0.365c-0.277,0.48-0.111,1.09,0.365,1.367l2.831,1.635l-2.829,1.633
			c-0.479,0.275-0.643,0.887-0.367,1.365c0.277,0.48,0.889,0.643,1.367,0.367l2.831-1.633v3.267c0,0.553,0.447,1,1,1
			c0.553,0,1-0.447,1-1v-3.267l2.828,1.633c0.48,0.275,1.09,0.113,1.367-0.367c0.277-0.479,0.111-1.09-0.367-1.365l-2.828-1.635
			l2.83-1.633C421.313,303.08,421.477,302.471,421.2,301.99z"/>
		<path d="M419.835,272.625l-2.83,1.635v-3.27c0-0.553-0.447-1-1-1c-0.553,0-1,0.447-1,1v3.27l-2.833-1.635
			c-0.479-0.275-1.088-0.113-1.365,0.365c-0.277,0.48-0.111,1.09,0.365,1.367l2.831,1.635l-2.829,1.633
			c-0.479,0.275-0.643,0.887-0.367,1.365c0.277,0.48,0.889,0.643,1.367,0.367l2.831-1.633v3.267c0,0.553,0.447,1,1,1
			c0.553,0,1-0.447,1-1v-3.267l2.828,1.633c0.48,0.275,1.09,0.113,1.367-0.367c0.277-0.479,0.111-1.09-0.367-1.365l-2.828-1.635
			l2.83-1.633c0.478-0.277,0.642-0.887,0.365-1.367C420.925,272.512,420.313,272.35,419.835,272.625z"/>
		<path d="M441.005,303.27V300c0-0.553-0.447-1-1-1c-0.553,0-1,0.447-1,1v3.27l-2.833-1.635c-0.479-0.275-1.088-0.113-1.365,0.365
			c-0.277,0.48-0.111,1.09,0.365,1.367l2.831,1.635l-2.829,1.633c-0.479,0.275-0.643,0.887-0.367,1.365
			c0.277,0.48,0.889,0.643,1.367,0.367l2.831-1.633v3.267c0,0.553,0.447,1,1,1c0.553,0,1-0.447,1-1v-3.267l2.828,1.633
			c0.053,0.03,0.111,0.036,0.167,0.056v-2.27L442.005,305l1.995-1.151v-2.27c-0.055,0.021-0.112,0.025-0.165,0.056L441.005,303.27z"
			/>
		<path d="M397.2,302c-0.275-0.478-0.887-0.641-1.365-0.365l-2.83,1.635V300c0-0.553-0.447-1-1-1c-0.553,0-1,0.447-1,1v3.27
			l-2.833-1.635c-0.055-0.031-0.114-0.037-0.172-0.058v2.269l2.003,1.156L388,306.158v2.268c0.058-0.021,0.118-0.026,0.174-0.059
			l2.831-1.633v3.267c0,0.553,0.447,1,1,1c0.553,0,1-0.447,1-1v-3.267l2.828,1.633c0.48,0.275,1.09,0.113,1.367-0.367
			c0.277-0.478,0.111-1.09-0.367-1.365L394.005,305l2.83-1.633C397.314,303.09,397.477,302.48,397.2,302z"/>
		<path d="M430.835,315.634l-2.83,1.635v-3.27c0-0.553-0.447-1-1-1c-0.553,0-1,0.447-1,1v3.27l-2.833-1.635
			c-0.479-0.275-1.088-0.113-1.365,0.365c-0.277,0.48-0.111,1.09,0.365,1.367l2.831,1.635L423.271,320h7.465l-1.731-1.001
			l2.83-1.633c0.478-0.277,0.642-0.887,0.365-1.367C431.925,315.521,431.313,315.358,430.835,315.634z"/>
		<path d="M408.835,315.625l-2.83,1.635v-3.27c0-0.553-0.447-1-1-1c-0.553,0-1,0.447-1,1v3.27l-2.833-1.635
			c-0.479-0.275-1.088-0.113-1.365,0.365c-0.277,0.48-0.111,1.09,0.365,1.367l2.831,1.635L401.257,320h7.495l-1.747-1.01l2.83-1.633
			c0.479-0.277,0.642-0.887,0.365-1.367C409.925,315.512,409.314,315.35,408.835,315.625z"/>
		<path d="M430.835,287.625l-2.451,1.416c-1.86,1.767-4.094,3.136-6.575,3.982c-0.158,0.295-0.182,0.655-0.002,0.967
			c0.277,0.48,0.889,0.643,1.367,0.367l2.831-1.633v3.267c0,0.553,0.447,1,1,1c0.553,0,1-0.447,1-1v-3.267l2.828,1.633
			c0.48,0.275,1.09,0.113,1.367-0.367c0.277-0.479,0.111-1.09-0.367-1.365l-2.828-1.635l2.83-1.633
			c0.478-0.277,0.642-0.887,0.365-1.367C431.925,287.512,431.313,287.35,430.835,287.625z"/>
		<path d="M400.172,289.357l2.831,1.635l-2.829,1.633c-0.479,0.275-0.643,0.887-0.367,1.365c0.277,0.48,0.889,0.643,1.367,0.367
			l2.831-1.633v3.267c0,0.553,0.447,1,1,1c0.553,0,1-0.447,1-1v-3.267l2.828,1.633c0.48,0.275,1.09,0.113,1.367-0.367
			c0.18-0.311,0.157-0.669,0-0.963c-2.492-0.85-4.735-2.225-6.601-4.001l-2.428-1.401c-0.479-0.275-1.088-0.113-1.365,0.365
			C399.529,288.471,399.695,289.08,400.172,289.357z"/>
		<path d="M444,272.569c-0.055,0.021-0.112,0.025-0.165,0.056l-2.83,1.635v-3.27c0-0.553-0.447-1-1-1c-0.553,0-1,0.447-1,1v3.27
			l-2.833-1.635c-0.479-0.275-1.088-0.113-1.365,0.365c-0.023,0.041-0.025,0.086-0.043,0.128c0.453,0.435,0.792,0.977,1.002,1.582
			l2.237,1.292l-2.231,1.288c-0.208,0.611-0.547,1.159-1.003,1.597c0.016,0.037,0.018,0.077,0.038,0.113
			c0.277,0.48,0.889,0.643,1.367,0.367l2.831-1.633v3.267c0,0.553,0.447,1,1,1c0.553,0,1-0.447,1-1v-3.267l2.828,1.633
			c0.053,0.03,0.111,0.036,0.167,0.056v-2.27l-1.995-1.153l1.995-1.151V272.569z"/>
		<path d="M391.005,277.725v3.267c0,0.553,0.447,1,1,1c0.553,0,1-0.447,1-1v-3.267l2.828,1.633c0.48,0.275,1.09,0.113,1.367-0.367
			c0.02-0.034,0.021-0.072,0.036-0.108c-0.459-0.44-0.801-0.991-1.01-1.607l-2.222-1.284l2.229-1.285
			c0.21-0.61,0.552-1.155,1.009-1.592c-0.018-0.04-0.02-0.084-0.042-0.123c-0.275-0.479-0.887-0.641-1.365-0.365l-2.83,1.635v-3.27
			c0-0.553-0.447-1-1-1c-0.553,0-1,0.447-1,1v3.27l-2.833-1.635c-0.055-0.031-0.114-0.037-0.172-0.058v2.268l2.003,1.156
			L388,277.148v2.268c0.058-0.02,0.118-0.026,0.174-0.059L391.005,277.725z"/>
	</g>
</g>
<g>
	<path fill="#E29460" d="M318,512h-60c-1.105,0-2,0.894-2,2v8c0,1.106,0.895,2,2,2h2v40h12v-28h32v28h12v-40h2c1.105,0,2-0.894,2-2
		v-8C320,512.894,319.105,512,318,512z"/>
	<polygon fill="#434854" points="318,570 318,564 258,564 258,570 256,570 256,576 320,576 320,570 	"/>
	<rect x="258" y="568" opacity="0.3" width="60" height="2"/>
	<rect x="260" y="524" opacity="0.15" width="56" height="2"/>
	<g opacity="0.15">
		<polygon points="304,538 308,538 308,544 304,544 304,546 316,546 316,544 310,544 310,538 316,538 316,536 304,536 		"/>
		<polygon points="304,554 308,554 308,560 304,560 304,562 316,562 316,560 310,560 310,554 316,554 316,552 304,552 		"/>
		<polygon points="310,524 308,524 308,528 294,528 294,524 292,524 292,528 278,528 278,524 276,524 276,528 262,528 262,524 
			260,524 260,530 268,530 268,536 260,536 260,546 268,546 268,552 260,552 260,562 268,562 268,564 270,564 270,562 272,562 
			272,560 262,560 262,554 272,554 272,552 270,552 270,546 272,546 272,544 262,544 262,538 272,538 272,536 270,536 270,530 
			284,530 284,536 286,536 286,530 300,530 300,536 302,536 302,530 316,530 316,528 310,528 		"/>
		<polygon points="320,516 314,516 314,512 312,512 312,516 298,516 298,512 296,512 296,516 282,516 282,512 280,512 280,516 
			266,516 266,512 264,512 264,516 256,516 256,518 272,518 272,524 274,524 274,518 288,518 288,524 290,524 290,518 304,518 
			304,524 306,524 306,518 320,518 		"/>
	</g>
	<path fill="#EF4D4D" d="M290,554c0-2.195,0.307-3.926,0.744-5.301c-1.102-1.338-2.119-2.822-2.744-4.699
		c-2.738,1.826-4.611,3.984-5.873,6.209C283.082,551.727,284,554.17,284,558c-0.66-2.644-1.76-4.4-2.934-5.586
		c-0.74,1.93-1.066,3.848-1.066,5.586c0,2.402,1.082,4.533,2.76,6h10.48c1.678-1.467,2.76-3.598,2.76-6
		c0-3.322-1.84-5.418-3.82-7.644C291.469,551.334,290.734,552.529,290,554z"/>
	<path fill="#EACA44" d="M289.953,564c-0.113-3.023-0.518-8.565-1.953-10c-1.436,1.435-1.84,6.977-1.953,10H289.953z"/>
	<path opacity="0.15" d="M281.145,562c0.443,0.742,0.967,1.434,1.615,2h10.48c0.648-0.566,1.172-1.258,1.615-2H281.145z"/>
</g>
<g>
	<g>
		<path fill="#434854" d="M386.836,159.014c-0.303,0.051-0.566,0.237-0.713,0.507c-0.147,0.27-0.163,0.591-0.042,0.873
			c0.104,0.244,2.639,5.966,9.819,5.966c0.989,0,2.032-0.123,3.1-0.346v-8.993c-0.055,0-0.108-0.016-0.164-0.007L386.836,159.014z"
			/>
		<path fill="#434854" d="M445.877,159.52c-0.147-0.269-0.41-0.456-0.713-0.507l-12-2c-0.056-0.009-0.109,0.007-0.164,0.007v8.993
			c1.067,0.223,2.11,0.346,3.1,0.346c7.181,0,9.715-5.722,9.819-5.966C446.04,160.111,446.024,159.79,445.877,159.52z"/>
	</g>
	<path fill="#E29460" d="M436,162c0-11.046-8.954-20-20-20s-20,8.954-20,20c0,6.611,3.222,12.455,8.165,16.097
		C404.066,178.718,404,179.351,404,180c0,6.628,5.372,12,12,12s12-5.372,12-12c0-0.649-0.066-1.282-0.165-1.903
		C432.778,174.455,436,168.611,436,162z"/>
	<circle fill="#EF4D4D" cx="416" cy="180" r="8"/>
	<g>
		<g>
			<path fill="#434854" d="M408.306,163.221c-0.407,0.407-0.407,1.066,0,1.475c0.407,0.407,1.066,0.407,1.474,0
				c0.814-0.814,2.135-0.813,2.949,0c0.407,0.407,1.066,0.407,1.474-0.001c0.407-0.407,0.407-1.066,0-1.474
				C412.574,161.593,409.934,161.593,408.306,163.221z"/>
			<path fill="#434854" d="M423.694,163.221c-1.628-1.628-4.269-1.628-5.896,0c-0.407,0.407-0.407,1.066,0,1.475
				c0.407,0.407,1.066,0.407,1.474,0c0.814-0.814,2.135-0.813,2.949,0c0.407,0.407,1.066,0.407,1.474-0.001
				C424.102,164.287,424.102,163.628,423.694,163.221z"/>
		</g>
	</g>
	<path opacity="0.15" fill="#FFFFFF" d="M416,174c-0.553,0-1,0.447-1,1s0.447,1,1,1c2.209,0,4,1.791,4,4c0,0.553,0.447,1,1,1
		s1-0.447,1-1C422,176.686,419.314,174,416,174z"/>
	<path opacity="0.15" fill="#FFFFFF" d="M416,146c6.954,0,13.266,2.735,17.931,7.183C430.67,146.564,423.877,142,416,142
		s-14.67,4.564-17.931,11.183C402.734,148.735,409.046,146,416,146z"/>
	<g>
		<path fill="#434854" d="M401.723,142.895c3.692-4.909,1.547-9.453-0.309-11.309l-3-3c-0.781-0.781-2.047-0.781-2.828,0
			c-0.781,0.781-0.781,2.047,0,2.828l3,3c0.272,0.273,2.28,2.463,0.269,5.612l-9.44-9.44c-0.781-0.781-2.047-0.781-2.828,0
			c-0.781,0.781-0.781,2.047,0,2.828l9.438,9.438c-3.016,1.918-5.17,0.155-5.61-0.267l-3-3c-0.781-0.781-2.047-0.781-2.828,0
			c-0.781,0.781-0.781,2.047,0,2.828l3,3c1.115,1.115,3.201,2.343,5.754,2.343c1.695,0,3.598-0.558,5.557-2.032l2.689,2.689
			c0.391,0.391,0.902,0.586,1.414,0.586c0.512,0,1.023-0.195,1.414-0.586c0.781-0.781,0.781-2.047,0-2.828L401.723,142.895z"/>
		<path fill="#434854" d="M447.414,139.586c-0.781-0.781-2.047-0.781-2.828,0l-3,3c-0.273,0.272-2.463,2.281-5.613,0.27l9.441-9.441
			c0.781-0.781,0.781-2.047,0-2.828c-0.781-0.781-2.047-0.781-2.828,0l-9.438,9.438c-1.92-3.016-0.155-5.169,0.267-5.61l3-3
			c0.781-0.781,0.781-2.047,0-2.828c-0.781-0.781-2.047-0.781-2.828,0l-3,3c-1.855,1.855-4.001,6.399-0.309,11.309l-2.691,2.691
			c-0.781,0.781-0.781,2.047,0,2.828c0.391,0.391,0.902,0.586,1.414,0.586c0.512,0,1.023-0.195,1.414-0.586l2.689-2.689
			c1.959,1.475,3.861,2.032,5.557,2.032c2.553,0,4.639-1.228,5.754-2.343l3-3C448.195,141.633,448.195,140.367,447.414,139.586z"/>
	</g>
</g>
<g>
	<path fill="#434854" d="M446,568h-60c-1.104,0-2,0.896-2,2s0.896,2,2,2c0,0,0,0,2,0c6,0,10.031,3.453,10.031,3.453
		c0.393,0.348,1.185,0.547,1.969,0.547h30c0.844,0,1.367-0.263,2-0.5c0,0,6-3.5,12-3.5c2,0,2,0,2,0c1.104,0,2-0.896,2-2
		S447.104,568,446,568z"/>
	<path opacity="0.3" d="M444,572h-56c2.131,0,4.007,0.438,5.549,1h44.378C439.778,572.438,441.887,572,444,572z"/>
	<path fill="#EF4D4D" d="M424,526.062c0-6-5-14-8-14s-8,8-8,14c0,4.418,3.582,8,8,8S424,530.479,424,526.062z"/>
	<path fill="#84BF56" d="M427,536.062h-22h-1c-0.553,0-1,0.447-1,1v11c0,0.553,0.447,1,1,1V568h24v-30.938
		C428,536.509,427.553,536.062,427,536.062z"/>
	<path fill="#EACA44" d="M416.003,522.062c-1.124,0-2.997,5.091-2.997,8.909c0,0.983,0.172,1.894,0.456,2.673
		c0.799,0.267,1.65,0.418,2.538,0.418c0.891,0,1.744-0.151,2.544-0.42c0.284-0.778,0.456-1.688,0.456-2.671
		C419,527.152,417.127,522.062,416.003,522.062z"/>
	<g opacity="0.15">
		<path d="M427,536.062h-3V568h4v-30.938C428,536.509,427.553,536.062,427,536.062z"/>
		<path d="M410,544.062c0,0.553,0.447,1,1,1s1-0.447,1-1v-8h-2V544.062z"/>
		<path d="M411,547.062c-0.553,0-1,0.447-1,1v3c0,0.553,0.447,1,1,1s1-0.447,1-1v-3C412,547.509,411.553,547.062,411,547.062z"/>
		<path d="M403,537.062v11c0,0.553,0.447,1,1,1s1-0.447,1-1v-12h-1C403.447,536.062,403,536.509,403,537.062z"/>
	</g>
	<rect x="404" y="567" opacity="0.1" width="24" height="1"/>
</g>
<g>
	<g>
		<path fill="#434854" d="M672,320c2.762,0,5-2.238,5-5h-10C667,317.762,669.238,320,672,320z"/>
		<path opacity="0.3" d="M676.899,316c0.065-0.323,0.101-0.657,0.101-1h-10c0,0.343,0.035,0.677,0.101,1H676.899z"/>
		<path fill="#84BF56" d="M696.45,313.106c-0.055-0.027-7.449-4.813-7.449-10.106v-19H689c0-9.389-7.611-17-17-17
			c-9.389,0-17,7.611-17,17h-0.001c0,0.007,0.001,0.013,0.001,0.02V303c0,5.293-7.395,10.079-7.447,10.105
			c-0.415,0.207-0.633,0.673-0.526,1.124c0.107,0.451,0.51,0.771,0.974,0.771h48.001c0.463,0,0.864-0.318,0.972-0.769
			C697.08,313.781,696.863,313.315,696.45,313.106z"/>
		<path fill="#EACA44" d="M667,267v19c0,0.379,0.214,0.725,0.553,0.895c0.34,0.168,0.745,0.134,1.047-0.095l3.4-2.55l3.4,2.55
			c0.176,0.133,0.388,0.2,0.6,0.2c0.152,0,0.306-0.035,0.447-0.105c0.339-0.17,0.553-0.516,0.553-0.895v-19H667z"/>
		<path opacity="0.15" d="M676.447,286.895c-0.142,0.07-0.295,0.105-0.447,0.105c-0.212,0-0.424-0.067-0.6-0.2l-3.4-2.55l-3.4,2.55
			c-0.302,0.228-0.707,0.263-1.047,0.095c-0.339-0.17-0.553-0.516-0.553-0.895v1c0,0.379,0.214,0.725,0.553,0.895
			c0.34,0.168,0.745,0.134,1.047-0.095l3.4-2.55l3.4,2.55c0.176,0.133,0.388,0.2,0.6,0.2c0.152,0,0.306-0.035,0.447-0.105
			c0.339-0.17,0.553-0.516,0.553-0.895v-1C677,286.379,676.786,286.725,676.447,286.895z"/>
		<g>
			<polygon fill="#EF4D4D" points="674,267 674,285.75 675,286.5 675,267 			"/>
			<polygon fill="#EF4D4D" points="669,267 669,286.5 670,285.75 670,267 			"/>
		</g>
		<g opacity="0.15">
			<rect x="655" y="301" width="34.001" height="2"/>
			<rect x="655" y="297" width="34.001" height="2"/>
		</g>
	</g>
	<path fill="#EF4D4D" d="M687.102,256.332c-0.562-0.371-1.273-0.432-1.889-0.168l-9.614,4.119c-0.644-1.344-2.006-2.281-3.598-2.281
		s-2.953,0.938-3.598,2.281l-9.615-4.119c-0.615-0.268-1.326-0.205-1.889,0.168c-0.561,0.371-0.898,0.998-0.898,1.67v12
		c0,0.672,0.338,1.299,0.898,1.67c0.332,0.219,0.717,0.33,1.102,0.33c0.268,0,0.535-0.053,0.787-0.162l9.615-4.119
		c0.645,1.344,2.006,2.281,3.598,2.281s2.953-0.938,3.598-2.281l9.614,4.119c0.252,0.109,0.519,0.162,0.787,0.162
		c0.385,0,0.769-0.111,1.102-0.33c0.561-0.371,0.898-0.998,0.898-1.67v-12C688,257.33,687.662,256.703,687.102,256.332z"/>
	<g opacity="0.15">
		<path d="M668.403,260.283l-2.402-1.027v9.492l2.402-1.027c-0.25-0.523-0.402-1.102-0.402-1.719v-4
			C668.001,261.385,668.153,260.807,668.403,260.283z"/>
		<path d="M675.599,267.721l2.401,1.027v-9.492l-2.401,1.027c0.25,0.523,0.402,1.102,0.402,1.719v4
			C676.001,266.619,675.849,267.197,675.599,267.721z"/>
	</g>
</g>
<g>
	<path fill="#84BF56" d="M557.028,401.972c0.001,0.276,0.112,0.526,0.293,0.707c0.181,0.181,0.431,0.292,0.707,0.293l16.97-0.001
		c0.406,0,0.77-0.242,0.925-0.617c0.155-0.373,0.069-0.803-0.217-1.089l-16.971-16.971c-0.286-0.286-0.716-0.372-1.089-0.218
		c-0.375,0.155-0.617,0.52-0.618,0.925V401.972z"/>
	<path fill="#84BF56" d="M530.971,430.029c0-0.276-0.111-0.527-0.293-0.707c-0.181-0.182-0.431-0.293-0.707-0.293H513
		c-0.404,0-0.77,0.242-0.924,0.617c-0.155,0.373-0.069,0.804,0.217,1.09l16.971,16.971c0.285,0.285,0.717,0.371,1.09,0.217
		c0.374-0.155,0.617-0.52,0.617-0.924V430.029z"/>
	<path fill="#EF4D4D" d="M560.264,399.736c-5.078-5.076-13.309-5.076-18.385,0l-14.143,14.143c-5.076,5.076-5.077,13.308,0,18.385
		c5.076,5.076,13.309,5.076,18.385,0l14.143-14.143C565.34,413.045,565.34,404.814,560.264,399.736z"/>
	<g>
		<path fill="#EACA44" d="M558.679,417.374l-4.002-0.008l0.009-4c0-1.106-0.891-2.003-1.996-2.004l-4-0.007l0.008-4.002
			c0.002-1.103-0.89-2.002-1.996-2.004l-4-0.006l0.009-4.003c0.001-0.666-0.329-1.245-0.833-1.602l-3.596,3.596l0.423,0.001
			l-0.008,4c-0.001,1.105,0.891,2,1.999,2.005l3.998,0.007l-0.008,3.999c-0.002,1.107,0.891,2.002,1.994,2.005l4.002,0.007l-0.009,4
			c-0.003,1.107,0.892,2.002,1.997,2.006l4,0.008v0.344l3.562-3.562C559.876,417.682,559.319,417.375,558.679,417.374z"/>
		<path fill="#EACA44" d="M551.768,424.26l-4.004-0.01l0.012-4c0.001-1.104-0.893-2.001-1.998-2.004l-4-0.006l0.01-4.001
			c0-1.104-0.892-2.002-1.997-2.004l-4.001-0.006l0.008-4.003c0.002-0.659-0.32-1.234-0.815-1.594l-3.585,3.585l0.394,0.001
			l-0.006,4c-0.002,1.105,0.889,2.002,1.995,2.006l4.001,0.008l-0.009,3.999c-0.003,1.106,0.892,2.002,1.997,2.003l3.999,0.009
			l-0.009,4.001c0.002,1.105,0.893,2,1.998,2.002l4.001,0.01l-0.001,0.371l3.575-3.575
			C552.977,424.572,552.414,424.262,551.768,424.26z"/>
	</g>
	<path opacity="0.15" d="M561.473,401.156c-0.565,3.352-2.127,6.568-4.715,9.156l-18.446,18.446
		c-2.587,2.587-5.804,4.149-9.155,4.714c5.091,3.813,12.336,3.42,16.965-1.209l14.143-14.143
		C564.893,413.492,565.285,406.248,561.473,401.156z"/>
	<g opacity="0.15">
		<path d="M561.917,396.669l4.597-4.597l-2.035-2.035l-3.352,6.035c-0.121,0.218-0.062,0.482,0.135,0.643
			C561.461,396.865,561.74,396.846,561.917,396.669z"/>
		<path d="M567.928,393.486l-4.596,4.598c-0.177,0.176-0.197,0.455-0.046,0.654c0.159,0.198,0.425,0.256,0.642,0.136l6.035-3.352
			L567.928,393.486z"/>
		<path d="M526.082,435.332l-4.597,4.597l2.034,2.034l3.354-6.035c0.12-0.217,0.062-0.482-0.137-0.643
			C526.538,435.136,526.258,435.156,526.082,435.332z"/>
		<path d="M524.727,433.248c-0.16-0.197-0.425-0.256-0.642-0.136l-6.035,3.353l2.034,2.034l4.598-4.598
			C524.857,433.727,524.877,433.447,524.727,433.248z"/>
		<path d="M525.399,429.029h-1.121c0.67,1.424,1.575,2.766,2.751,3.941s2.518,2.081,3.941,2.751v-1.121
			c-1.163-0.598-2.261-1.363-3.234-2.337C526.762,431.289,525.997,430.191,525.399,429.029z"/>
		<path d="M557.028,396.278v1.122c1.162,0.598,2.261,1.362,3.235,2.336c0.974,0.975,1.738,2.072,2.336,3.235h1.122
			c-0.669-1.425-1.574-2.765-2.751-3.942C559.794,397.853,558.453,396.948,557.028,396.278z"/>
	</g>
</g>
<g>
	<path fill="#EF4D4D" d="M699.857,446.485L694,437h-44l-5.857,9.485c-0.186,0.309-0.19,0.693-0.013,1.008
		c0.178,0.313,0.51,0.507,0.87,0.507h54c0.36,0,0.692-0.193,0.87-0.507C700.048,447.179,700.043,446.794,699.857,446.485z"/>
	<path fill="#DAE2E5" d="M650,437h44c5.657-5.616,9-13.398,9-22c0-17.12-13.879-31-31-31s-31,13.88-31,31
		C641,423.602,644.343,431.384,650,437z"/>
	<path opacity="0.4" fill="#FFFFFF" d="M672,397c12.753,0,24.031,6.29,30.924,15.93C701.856,396.775,688.425,384,672,384
		s-29.856,12.775-30.924,28.93C647.969,403.29,659.247,397,672,397z"/>
	<path fill="#FFFFFF" d="M672,388c-0.553,0-1,0.447-1,1s0.447,1,1,1c13.807,0,25,11.193,25,25c0,0.553,0.447,1,1,1
		c0.553,0,1-0.447,1-1C699,400.088,686.912,388,672,388z"/>
	<path opacity="0.1" d="M687,431c-2-1-7,2-8,2s-5,2-7,2s-5-2-7-2s-4,1-7,2s-5-1-7-2c-0.892-0.445-2.379,0.103-3.754,0.848
		c0.845,1.111,1.762,2.167,2.754,3.152h44c0.979-0.973,1.884-2.014,2.72-3.108c-1.829-0.254-3.917-0.892-4.72-0.892
		C691,433,689,432,687,431z"/>
	<g opacity="0.25">
		<path d="M664.707,413.293c-0.391-0.391-1.023-0.391-1.414,0l-11,11c-0.286,0.286-0.372,0.716-0.217,1.09
			c0.154,0.374,0.52,0.617,0.924,0.617h2v9.071c0.894,0.257,1.877,0.303,3-0.071c3-1,5-2,7-2s5,2,7,2c0.294,0,0.635-0.047,1-0.121
			V426h2c0.404,0,0.769-0.243,0.924-0.617c0.155-0.374,0.069-0.804-0.217-1.09L664.707,413.293z"/>
		<path d="M697.079,429.998c0.524-0.03,0.94-0.466,0.94-0.998c0-0.3-0.132-0.569-0.341-0.752l-2.6-3.25
			c0.524-0.03,0.94-0.466,0.94-0.998c0-0.3-0.132-0.569-0.341-0.752l-2.6-3.25c0.524-0.03,0.94-0.466,0.94-0.998
			c0-0.271-0.107-0.517-0.282-0.696l-3.905-5.858c-0.371-0.557-1.293-0.557-1.664,0l-4,6c-0.204,0.307-0.224,0.701-0.05,1.026
			c0.162,0.302,0.466,0.499,0.804,0.525l-2.703,3.378c-0.24,0.301-0.286,0.712-0.12,1.059c0.155,0.322,0.47,0.536,0.823,0.564
			l-2.703,3.378c-0.24,0.301-0.286,0.712-0.12,1.059c0.155,0.322,0.47,0.536,0.823,0.564l-2.485,3.105
			C678.67,433.039,678.864,433,679,433c1,0,6-3,8-2s4,2,5,2c0.8,0,2.876,0.633,4.701,0.889c0.573-0.754,1.125-1.523,1.627-2.329
			L697.079,429.998z"/>
		<path opacity="0.2" d="M695.833,435c0.139-0.165,0.263-0.341,0.397-0.509c-0.138,0.171-0.275,0.341-0.416,0.509H695.833z"/>
	</g>
	<g opacity="0.6">
		<circle fill="#FFFFFF" cx="665" cy="409" r="1"/>
		<circle fill="#FFFFFF" cx="671" cy="404" r="1"/>
		<circle fill="#FFFFFF" cx="679" cy="408" r="1"/>
		<circle fill="#FFFFFF" cx="684" cy="402" r="1"/>
		<circle fill="#FFFFFF" cx="700" cy="407" r="1"/>
		<circle fill="#FFFFFF" cx="690" cy="423" r="1"/>
		<circle fill="#FFFFFF" cx="681" cy="429" r="1"/>
		<circle fill="#FFFFFF" cx="661" cy="427" r="1"/>
		<circle fill="#FFFFFF" cx="671" cy="421" r="1"/>
		<circle fill="#FFFFFF" cx="680" cy="420" r="1"/>
		<circle fill="#FFFFFF" cx="660" cy="417" r="1"/>
		<circle fill="#FFFFFF" cx="651" cy="410" r="1"/>
		<circle fill="#FFFFFF" cx="646" cy="420" r="1"/>
		<circle fill="#FFFFFF" cx="648" cy="425" r="1"/>
		<circle fill="#FFFFFF" cx="662" cy="397" r="1"/>
		<circle fill="#FFFFFF" cx="666" cy="391" r="1"/>
		<circle fill="#FFFFFF" cx="679" cy="393" r="1"/>
		<circle fill="#FFFFFF" cx="654" cy="395" r="1"/>
	</g>
	<circle fill="#EACA44" cx="688" cy="442" r="2"/>
	<g opacity="0.15">
		<polygon points="694,437 650,437 649.383,438 694.617,438 		"/>
		<path d="M688,444c-0.931,0-1.706-0.639-1.93-1.5c-0.041,0.161-0.07,0.326-0.07,0.5c0,1.104,0.896,2,2,2s2-0.896,2-2
			c0-0.174-0.029-0.339-0.07-0.5C689.706,443.361,688.931,444,688,444z"/>
	</g>
</g>
</svg>
