<svg  xmlns="http://www.w3.org/2000/svg"
      xmlns:xlink="http://www.w3.org/1999/xlink"
      >
    	<path fill="#84BF56" d="M189.518,316.699L180.348,306H184c0.781,0,1.49-0.455,1.816-1.164c0.326-0.709,0.211-1.545-0.299-2.137
    		L176.348,292H180c0.781,0,1.49-0.455,1.816-1.164c0.326-0.709,0.211-1.545-0.299-2.137L172.348,278H176
    		c0.787,0,1.502-0.463,1.824-1.18c0.322-0.719,0.193-1.561-0.33-2.148l-16-18C161.115,256.244,160.57,256,160,256
    		s-1.115,0.244-1.494,0.672l-16,18c-0.523,0.588-0.652,1.43-0.33,2.148c0.322,0.717,1.037,1.18,1.824,1.18h3.652l-9.17,10.699
    		c-0.51,0.592-0.625,1.428-0.299,2.137C138.51,291.545,139.219,292,140,292h3.652l-9.17,10.699c-0.51,0.592-0.625,1.428-0.299,2.137
    		C134.51,305.545,135.219,306,136,306h3.652l-9.17,10.699c-0.51,0.592-0.625,1.428-0.299,2.137C130.51,319.545,131.219,320,132,320
    		h56c0.781,0,1.49-0.455,1.816-1.164C190.143,318.127,190.027,317.291,189.518,316.699z"/>
    	<path opacity="0.15" d="M189.816,318.836c0.326-0.709,0.211-1.545-0.299-2.137L180.348,306H184c0.781,0,1.49-0.455,1.816-1.164
    		c0.326-0.709,0.211-1.545-0.299-2.137L176.348,292H180c0.781,0,1.49-0.455,1.816-1.164c0.326-0.709,0.211-1.545-0.299-2.137
    		L172.348,278H176c0.787,0,1.502-0.463,1.824-1.18c0.322-0.719,0.193-1.561-0.33-2.148l-15.611-17.565
    		C160.715,256.418,160,256,160,256l12,64h16C188.781,320,189.49,319.545,189.816,318.836z"/>
    	<g>
    		<circle fill="#EF4D4D" cx="170" cy="296" r="6"/>
    		<path opacity="0.15" d="M170,302c-2.973,0-5.422-2.164-5.898-5c-0.057,0.326-0.102,0.658-0.102,1c0,3.315,2.686,6,6,6s6-2.685,6-6
    			c0-0.342-0.045-0.674-0.102-1C175.422,299.836,172.973,302,170,302z"/>
    		<path opacity="0.15" d="M170,298c-2.365,0-4.467-1.045-5.932-2.676C164.043,295.549,164,295.77,164,296c0,3.315,2.686,6,6,6
    			s6-2.685,6-6c0-0.23-0.043-0.451-0.068-0.676C174.467,296.955,172.365,298,170,298z"/>
    	</g>
    	<g>
    		<circle fill="#469FCC" cx="156" cy="276" r="6"/>
    		<path opacity="0.15" d="M156,282c-2.973,0-5.422-2.164-5.898-5c-0.057,0.326-0.102,0.658-0.102,1c0,3.315,2.686,6,6,6s6-2.685,6-6
    			c0-0.342-0.045-0.674-0.102-1C161.422,279.836,158.973,282,156,282z"/>
    		<path opacity="0.15" d="M156,278c-2.365,0-4.467-1.045-5.932-2.676C150.043,275.549,150,275.77,150,276c0,3.315,2.686,6,6,6
    			s6-2.685,6-6c0-0.23-0.043-0.451-0.068-0.676C160.467,276.955,158.365,278,156,278z"/>
    	</g>
    	<g>
    		<circle fill="#EACA44" cx="150" cy="308" r="6"/>
    		<path opacity="0.15" d="M150,314c-2.973,0-5.422-2.164-5.898-5c-0.057,0.326-0.102,0.658-0.102,1c0,3.315,2.686,6,6,6s6-2.685,6-6
    			c0-0.342-0.045-0.674-0.102-1C155.422,311.836,152.973,314,150,314z"/>
    		<path opacity="0.15" d="M150,310c-2.365,0-4.467-1.045-5.932-2.676C144.043,307.549,144,307.77,144,308c0,3.315,2.686,6,6,6
    			s6-2.685,6-6c0-0.23-0.043-0.451-0.068-0.676C154.467,308.955,152.365,310,150,310z"/>
    	</g>
</svg>